<?xml version="1.0" encoding="UTF-8"?>
<svg version="1.1" xmlns="http://www.w3.org/2000/svg" width="1313" height="1313">
<path d="M0 0 C0.85698673 0.00291284 1.71397346 0.00582568 2.59692949 0.00882679 C3.50024899 0.00797237 4.40356848 0.00711794 5.3342613 0.00623763 C8.38529224 0.00458005 11.43626915 0.01010871 14.48729509 0.01555592 C16.66475479 0.01583776 18.84221459 0.01568012 21.01967424 0.01511341 C26.95125229 0.01482531 32.88281031 0.02072415 38.81438369 0.02768737 C45.0057224 0.03391873 51.19706152 0.03452453 57.38840288 0.03571278 C68.4537988 0.03864949 79.51918639 0.04587962 90.58457851 0.0553555 C104.60652416 0.0672998 118.62846867 0.07348206 132.65041834 0.0787577 C160.12917082 0.08922356 187.60791505 0.10682425 215.08666033 0.12908131 C215.11040727 0.69173695 215.13415422 1.25439259 215.15862077 1.8340984 C215.27068646 4.42743811 215.38957217 7.0204242 215.50853533 9.61345631 C215.54575701 10.49823658 215.58297868 11.38301686 215.62132829 12.29460865 C216.14371452 23.42860531 217.19578756 34.00209751 224.08666033 43.12908131 C224.54041033 43.99533131 224.99416033 44.86158131 225.46166033 45.75408131 C227.46779814 48.68612888 229.87939102 50.61447455 232.66087908 52.79705006 C233.13138689 53.23662037 233.6018947 53.67619068 234.08666033 54.12908131 C234.08666033 54.78908131 234.08666033 55.44908131 234.08666033 56.12908131 C234.76728533 56.37658131 235.44791033 56.62408131 236.14916033 56.87908131 C239.04177038 58.1099792 241.58438945 59.56516201 244.24291033 61.22673756 C246.49239217 62.32764922 248.62874205 62.65687876 251.08666033 63.12908131 C252.11114731 63.38948012 252.11114731 63.38948012 253.156331 63.65513951 C261.46828865 65.65229578 269.83922192 65.41030169 278.32713884 65.38787037 C280.05783288 65.39058446 281.78852576 65.39414773 283.51921648 65.39849049 C288.19472842 65.4075664 292.87015157 65.4040903 297.54566497 65.39773232 C302.45149855 65.39264821 307.35732483 65.39737038 312.26315874 65.40050465 C320.49852919 65.40413694 328.7338637 65.3993642 336.96922868 65.3898235 C346.47595866 65.37893676 355.98260286 65.3824691 365.48933077 65.39347631 C373.66880601 65.40256588 381.8482555 65.4038264 390.02773416 65.39859897 C394.9055251 65.39548892 399.78327577 65.39504341 404.66106409 65.40167195 C409.24693988 65.40746923 413.83270555 65.40340504 418.41856951 65.39188343 C420.09669303 65.38924972 421.7748259 65.38997979 423.45294565 65.39440876 C431.56314203 65.41383254 439.22172947 65.38416598 447.08666033 63.12908131 C448.60259783 62.69595631 448.60259783 62.69595631 450.14916033 62.25408131 C463.88488985 56.99358915 473.32976629 47.75957925 479.36791033 34.26580006 C481.45764802 28.86979881 482.55468667 23.87439679 483.08666033 18.12908131 C485.18724142 16.02850021 489.77382619 16.89453957 492.68041033 16.84783131 C493.97319902 16.82021717 493.97319902 16.82021717 495.29210466 16.79204518 C498.99579071 16.71308641 502.69966658 16.64553274 506.40355486 16.57683522 C509.10010159 16.5252244 511.7964859 16.46792729 514.49291033 16.41033131 C515.33768938 16.39675587 516.18246843 16.38318043 517.05284685 16.36919361 C520.8811118 16.65534774 520.8811118 16.65534774 524.08666033 15.12908131 C526.45213551 15.0314416 528.78836967 14.99910843 531.15430254 15.00882679 C531.90244704 15.00797237 532.65059155 15.00711794 533.4214071 15.00623763 C535.9472998 15.00458058 538.47312719 15.01010783 540.99901384 15.01555592 C542.80209407 15.01583777 544.60517441 15.0156801 546.40825456 15.01511341 C551.31920572 15.01482535 556.23013267 15.02072347 561.14107817 15.02768737 C566.26738244 15.03391947 571.3936872 15.03452459 576.51999468 15.03571278 C586.23456658 15.03882652 595.9491273 15.04704048 605.66369426 15.05706227 C616.7203375 15.06822208 627.77698125 15.07373352 638.83362871 15.0787577 C661.58464547 15.08922306 684.33565227 15.10682333 707.08666033 15.12908131 C708.54972753 18.05521573 707.70304961 20.11271193 707.14916033 23.31658131 C706.33155165 28.59584264 705.99394341 33.51786212 706.08666033 38.87908131 C706.16834648 44.13966945 705.79311351 48.78615475 704.58275408 53.89470631 C704.10688805 56.03797689 703.88013839 58.0679757 703.71166033 60.25408131 C701.86203034 78.04135637 696.11611433 104.21786049 686.64305681 119.45037037 C685.13815332 122.04045682 684.19493877 124.42028616 683.26244158 127.25798756 C681.16114436 133.21083193 678.36197383 138.57340583 675.27416033 144.06658131 C674.47413591 145.5077129 674.47413591 145.5077129 673.65794939 146.97795826 C672.14260473 149.69982125 670.61585593 152.41498423 669.08666033 155.12908131 C668.40030655 156.36336965 667.71408258 157.5977302 667.02806658 158.83220631 C663.62196127 164.84205493 659.83581588 170.4246077 655.68822283 175.94939381 C654.06759743 178.0261948 654.06759743 178.0261948 653.08666033 180.12908131 C652.42666033 180.12908131 651.76666033 180.12908131 651.08666033 180.12908131 C650.90103533 180.78908131 650.71541033 181.44908131 650.52416033 182.12908131 C648.44512849 186.46793036 645.32969385 189.60965288 642.08666033 193.12908131 C637.18397543 198.48288131 632.42129873 203.75777922 628.27806658 209.73064381 C627.88490251 210.19212818 627.49173845 210.65361256 627.08666033 211.12908131 C626.42666033 211.12908131 625.76666033 211.12908131 625.08666033 211.12908131 C625.08666033 211.78908131 625.08666033 212.44908131 625.08666033 213.12908131 C623.50462908 214.50408131 623.50462908 214.50408131 621.27416033 216.12908131 C616.32160314 219.8474298 611.86947166 223.94305261 607.37181658 228.18767506 C605.08666033 230.12908131 605.08666033 230.12908131 603.08666033 230.12908131 C603.08666033 230.78908131 603.08666033 231.44908131 603.08666033 232.12908131 C599.89024258 234.52639461 597.08547821 236.51387856 593.08666033 237.12908131 C593.08666033 237.78908131 593.08666033 238.44908131 593.08666033 239.12908131 C590.80597475 240.82682485 588.53158704 242.39846667 586.14916033 243.94158131 C585.46345964 244.39226979 584.77775896 244.84295826 584.07127947 245.30730397 C579.8488861 248.05850615 575.58924278 250.67170719 571.11400408 252.99626881 C568.91245648 254.18588444 568.91245648 254.18588444 566.28978533 256.04705006 C562.94746464 258.21955851 559.52169963 259.93221545 555.89916033 261.56658131 C554.9178615 262.01553761 554.9178615 262.01553761 553.91673845 262.47356373 C552.59619518 263.07719916 551.27475621 263.6788794 549.95238298 264.27849537 C548.26625809 265.0472024 546.58805316 265.83322391 544.91087908 266.62126881 C540.97140032 268.46296151 537.1746088 270.20791066 532.96166033 271.31658131 C531.53853533 271.71876881 531.53853533 271.71876881 530.08666033 272.12908131 C529.75666033 272.78908131 529.42666033 273.44908131 529.08666033 274.12908131 C528.00384783 274.03626881 528.00384783 274.03626881 526.89916033 273.94158131 C523.52057378 274.16682041 521.92872813 275.35278893 519.08666033 277.12908131 C517.4231155 277.47766055 515.75587048 277.80872784 514.08666033 278.12908131 C512.14385997 278.73740526 510.20673818 279.36402343 508.27416033 280.00408131 C501.35885037 282.16315998 494.4576457 283.54903109 487.32298845 284.7516399 C485.65371021 285.03337617 483.98596877 285.32424627 482.3190822 285.61980397 C464.86742964 288.65548786 447.34829219 289.27224478 429.67552751 289.19304615 C428.01009641 289.18890942 426.34466434 289.18515175 424.67923158 289.18174511 C420.34021956 289.17169558 416.00124692 289.15605707 411.66225809 289.13884598 C408.35142346 289.12629386 405.04058385 289.11681356 401.72973889 289.10746235 C381.41761039 289.04966192 361.10562518 288.94678376 340.79369539 288.84155422 C330.0713474 288.78616108 319.34900793 288.73710138 308.62659568 288.69593829 C300.9848084 288.66605174 293.34307722 288.62880754 285.70134991 288.58629125 C281.17638069 288.56132131 276.65145088 288.53945041 272.12643236 288.52573735 C267.88731252 288.51276363 263.64833462 288.49055075 259.40929407 288.46169811 C257.87200843 288.45276131 256.33470011 288.44696548 254.79738992 288.44486767 C236.37108687 288.41525467 217.73118601 286.55492318 199.88744158 281.85173756 C196.5885026 281.00054689 193.26952516 280.3100884 189.92650408 279.65642506 C188.08666033 279.12908131 188.08666033 279.12908131 185.08666033 277.12908131 C183.91103533 276.96408131 182.73541033 276.79908131 181.52416033 276.62908131 C178.08666033 276.12908131 178.08666033 276.12908131 176.08666033 274.12908131 C174.09037368 273.77418591 172.08975362 273.44329202 170.08666033 273.12908131 C167.27416033 272.19158131 167.27416033 272.19158131 165.08666033 271.12908131 C164.75666033 270.46908131 164.42666033 269.80908131 164.08666033 269.12908131 C162.42099235 268.79079284 160.75399598 268.45905206 159.08666033 268.12908131 C156.14787913 267.08685184 153.27713763 265.89012826 150.39916033 264.69158131 C149.62765642 264.37898365 148.85615251 264.066386 148.0612697 263.74431568 C147.32328142 263.4394524 146.58529314 263.13458912 145.82494158 262.82048756 C145.15503191 262.54406422 144.48512224 262.26764088 143.79491228 261.98284107 C142.08666033 261.12908131 142.08666033 261.12908131 140.08666033 259.12908131 C138.4322742 258.43249768 136.76411715 257.76811248 135.08666033 257.12908131 C133.7461598 256.47694592 132.41004665 255.81528162 131.08666033 255.12908131 C131.08666033 254.46908131 131.08666033 253.80908131 131.08666033 253.12908131 C129.76666033 253.12908131 128.44666033 253.12908131 127.08666033 253.12908131 C127.08666033 252.46908131 127.08666033 251.80908131 127.08666033 251.12908131 C126.4137697 250.89962818 125.74087908 250.67017506 125.04759783 250.43376881 C121.28709938 248.77676818 118.08754644 246.57923982 114.71166033 244.25408131 C111.01665745 241.72315454 107.36843107 239.24693425 103.42259783 237.12126881 C100.03320815 235.09716022 97.79483511 232.97866395 95.08666033 230.12908131 C92.96086007 228.22608127 90.77503974 226.39700075 88.58666033 224.56658131 C87.75328142 223.86371998 87.75328142 223.86371998 86.90306658 223.14665943 C84.3637445 221.01064145 81.82095956 218.92659161 79.18041033 216.91423756 C78.48947283 216.325136 77.79853533 215.73603443 77.08666033 215.12908131 C77.08666033 214.46908131 77.08666033 213.80908131 77.08666033 213.12908131 C76.09666033 212.79908131 75.10666033 212.46908131 74.08666033 212.12908131 C74.08666033 211.46908131 74.08666033 210.80908131 74.08666033 210.12908131 C73.09666033 209.79908131 72.10666033 209.46908131 71.08666033 209.12908131 C71.08666033 208.46908131 71.08666033 207.80908131 71.08666033 207.12908131 C70.09666033 206.79908131 69.10666033 206.46908131 68.08666033 206.12908131 C66.81866433 204.666009 65.55474175 203.19806189 64.34837908 201.68376881 C62.23563779 199.08045293 59.83409709 196.79643556 57.33666033 194.56658131 C56.08666033 193.12908131 56.08666033 193.12908131 56.08666033 190.12908131 C55.42666033 190.12908131 54.76666033 190.12908131 54.08666033 190.12908131 C53.93197283 189.17001881 53.93197283 189.17001881 53.77416033 188.19158131 C53.54728533 187.51095631 53.32041033 186.83033131 53.08666033 186.12908131 C52.09666033 185.79908131 51.10666033 185.46908131 50.08666033 185.12908131 C48.36487042 182.95203848 46.77473233 180.79001543 45.21166033 178.50408131 C44.79013689 177.899511 44.36861345 177.29494068 43.93431658 176.67205006 C43.07937623 175.44585121 42.22767052 174.21739103 41.37914079 172.98674732 C40.07911063 171.11823023 38.74981422 169.27348564 37.41478533 167.42986256 C35.67828713 165.00488191 34.11239645 162.57980988 32.71166033 159.94158131 C30.09264852 155.0884604 27.27561632 150.3635217 24.44212908 145.63298756 C23.08666033 143.12908131 23.08666033 143.12908131 23.08666033 141.12908131 C22.42666033 140.79908131 21.76666033 140.46908131 21.08666033 140.12908131 C20.81853533 139.30408131 20.55041033 138.47908131 20.27416033 137.62908131 C19.25891444 134.63677765 18.14921039 132.34177819 16.58666033 129.62908131 C14.61666331 126.18302238 13.27354638 122.92711667 12.08666033 119.12908131 C11.49350528 117.87049972 10.8922177 116.61573982 10.28587908 115.36345631 C7.40282128 108.94077061 5.75009737 102.16836128 3.96166033 95.37908131 C3.27560409 92.7998411 2.58415279 90.22215312 1.89134783 87.64470631 C1.59212419 86.5132317 1.29290056 85.38175709 0.98460954 84.21599537 C0.17346545 81.42749456 -0.82603845 78.81753729 -1.91333967 76.12908131 C-2.25708967 73.66423756 -2.25708967 73.66423756 -2.41333967 71.19158131 C-2.66062606 68.15220685 -3.00264609 65.86116205 -3.97583967 62.94158131 C-5.10777967 59.54576131 -4.91333967 56.70251116 -4.91333967 53.12908131 C-5.21220281 51.75899014 -5.54328258 50.39569621 -5.89893538 49.03923756 C-7.07319708 43.94630382 -7.18581335 39.08757383 -7.14380842 33.87908131 C-7.1433502 32.93975758 -7.14289198 32.00043385 -7.14241987 31.03264576 C-7.13942031 29.06624278 -7.13160376 27.09984168 -7.11915022 25.13347584 C-7.10072211 22.10979117 -7.09864203 19.08641041 -7.09888655 16.06267506 C-7.09397694 14.14730781 -7.08815107 12.23194263 -7.08130842 10.31658131 C-7.0801956 9.40940357 -7.07908278 8.50222584 -7.07793623 7.56755787 C-7.02003019 0.0181094 -7.02003019 0.0181094 0 0 Z " fill="#E96823" transform="translate(277.9133396744728,648.8709186911583)"/>
<path d="M0 0 C73.26 0 146.52 0 222 0 C222.33 7.26 222.66 14.52 223 22 C224.33541571 30.01249424 225.64763006 37.10745685 230 44 C230.39316406 44.62519531 230.78632813 45.25039063 231.19140625 45.89453125 C233.71385891 49.65053442 236.30153393 52.333664 240 55 C240.56332031 55.47308594 241.12664062 55.94617188 241.70703125 56.43359375 C251.91423176 64.76982065 263.48182538 66.18393656 276.23677063 66.10679626 C277.01439119 66.10623956 277.79201175 66.10568285 278.59319657 66.10510927 C281.17194594 66.10209857 283.75061532 66.09193157 286.3293457 66.08178711 C288.18982359 66.07822671 290.05030245 66.0751419 291.91078186 66.07249451 C295.90649369 66.0659627 299.90218281 66.05641505 303.89788246 66.04459953 C310.23442208 66.02621928 316.57095636 66.01668329 322.90751648 66.00868225 C340.92315061 65.98460126 358.93875153 65.94884143 376.9543457 65.90405273 C386.91287138 65.87937289 396.87138386 65.86208951 406.82993573 65.85249335 C413.10913995 65.8460078 419.38823435 65.8305697 425.66740096 65.80817592 C429.6027402 65.79630917 433.53805407 65.79307064 437.47340965 65.79207802 C439.27592602 65.78995985 441.0784427 65.78447244 442.88093567 65.7750473 C461.5805787 65.68118991 479.76855054 67.38635527 498.01171875 71.56640625 C499.70453771 71.93556716 501.41415664 72.22626506 503.125 72.5 C506.50279951 73.08744339 509.70948934 74.04276053 513 75 C514.18722656 75.22236328 514.18722656 75.22236328 515.3984375 75.44921875 C518.08329014 76.0176335 520.49722195 76.84133139 523.0625 77.8125 C526.99663782 79.27857281 530.94219209 80.64767618 534.9375 81.9375 C542.68785722 84.50084772 550.22818917 87.53329669 557.5 91.25 C560.18545406 92.59272703 562.14622272 93.37417165 565 94 C565 94.66 565 95.32 565 96 C565.928125 96.103125 566.85625 96.20625 567.8125 96.3125 C571.11919757 97.02570928 571.87473758 97.55594822 574 100 C574.66 100 575.32 100 576 100 C576 100.66 576 101.32 576 102 C576.87527344 102.26039063 577.75054688 102.52078125 578.65234375 102.7890625 C581.98700574 103.99529963 584.59844872 105.44393956 587.5625 107.375 C588.92568359 108.25285156 588.92568359 108.25285156 590.31640625 109.1484375 C593 111 593 111 595.65234375 113.1640625 C597.94394221 115.16759862 597.94394221 115.16759862 601 116 C601.66 116.66 602.32 117.32 603 118 C606.86119869 121.37854885 610.78468329 124.63464776 614.8125 127.8125 C619.28752582 131.36799996 623.53640132 135.12093396 627.75390625 138.9765625 C629.52725596 140.57411928 631.31683982 142.08383492 633.1875 143.5625 C636.22901457 146.1984793 638.74760724 149.04276789 641.3515625 152.1015625 C643.07175418 154.13584914 643.07175418 154.13584914 645.4375 156.375 C664 175.3902439 664 175.3902439 664 182 C664.66 182 665.32 182 666 182 C666.33 182.99 666.66 183.98 667 185 C661.09733404 190.14103164 654.01371195 193.78806826 646.875 196.9375 C644.67642241 197.99740267 644.67642241 197.99740267 643 201 C642.01 201 641.02 201 640 201 C638.97803008 201.97753644 637.98020375 202.9805881 637 204 C635.67365854 204.68047084 634.33898243 205.34475328 633 206 C631.387983 206.9450686 629.78425782 207.90437241 628.1875 208.875 C625.18895246 210.69002657 622.18394513 212.47634063 619.125 214.1875 C616.10687834 215.8527871 616.10687834 215.8527871 613.9375 217.5625 C611.4460285 219.41101111 608.79400401 220.66120641 606 222 C605.278125 222.391875 604.55625 222.78375 603.8125 223.1875 C602 224 602 224 599 224 C598.67 224.99 598.34 225.98 598 227 C595.296875 228.54296875 595.296875 228.54296875 591.75 230.1875 C585.39630342 233.19844576 579.53685958 236.66717016 573.64453125 240.49609375 C571 242 571 242 568 242 C568 242.66 568 243.32 568 244 C566.0234375 245.40234375 566.0234375 245.40234375 563.375 246.9375 C562.46234375 247.46730469 561.5496875 247.99710938 560.609375 248.54296875 C557.03525678 250.53869644 553.40596971 252.35401392 549.6875 254.0625 C547.81810662 254.89321682 547.81810662 254.89321682 547 257 C544.68745988 258.04718798 542.3514852 259.04346365 540 260 C536.82144422 261.2886999 536.82144422 261.2886999 535 264 C532.04109405 265.56674294 529.01578356 266.9548973 525.98046875 268.3671875 C523.03567649 269.98045508 521.32637407 271.62344923 519 274 C517.01531369 275.28671609 514.99130732 276.51425939 512.9375 277.6875 C511.37322266 278.59048828 511.37322266 278.59048828 509.77734375 279.51171875 C507 281 507 281 504 282 C503.67 282.66 503.34 283.32 503 284 C499.9375 284.625 499.9375 284.625 497 285 C497 285.66 497 286.32 497 287 C496.01515625 287.56074219 495.0303125 288.12148438 494.015625 288.69921875 C491.30633601 290.24553248 488.61101613 291.81347521 485.921875 293.39453125 C484.53143053 294.20083223 483.14080416 295.00681961 481.75 295.8125 C481.04359375 296.23208984 480.3371875 296.65167969 479.609375 297.08398438 C477.78235235 298.13417637 475.89395762 299.07596561 474 300 C471 299 471 299 469.875 297.0625 C469.58625 296.381875 469.2975 295.70125 469 295 C468.17798016 292.80882227 468.17798016 292.80882227 465.93359375 292.1484375 C464.69802734 291.76558594 464.69802734 291.76558594 463.4375 291.375 C462.19806641 290.98441406 462.19806641 290.98441406 460.93359375 290.5859375 C460.29550781 290.39257812 459.65742187 290.19921875 459 290 C459 289.34 459 288.68 459 288 C448.62000815 287.02034472 438.30860694 286.79784185 427.89086914 286.70288086 C426.10200607 286.68339454 424.31314707 286.66353207 422.52429199 286.64332581 C417.69939344 286.58991021 412.87445543 286.54179926 408.04949117 286.49474788 C402.96821952 286.44433842 397.88699924 286.38917945 392.80577087 286.33460999 C384.26629372 286.24356888 375.72678878 286.15571224 367.18725586 286.07006836 C356.2902434 285.96076898 345.39328955 285.84647957 334.49634647 285.73049068 C325.0590124 285.63005496 315.62165689 285.53169089 306.18429637 285.43377614 C303.18618214 285.40261426 300.18807032 285.37122649 297.18995857 285.33982658 C292.45113455 285.29035974 287.71229973 285.24209128 282.9734534 285.19481099 C281.18908791 285.17690873 279.40472541 285.15870614 277.62036622 285.14018714 C269.65983982 285.05806036 261.7012264 284.98029908 253.74020386 285.02810669 C252.19147032 285.03702737 252.19147032 285.03702737 250.61144924 285.04612827 C248.83124547 285.06031299 247.05107078 285.08113006 245.27106571 285.11127377 C239.68999305 285.16294177 234.79585772 284.31040016 229.484375 282.66015625 C226.8535843 281.96109394 224.65065072 281.86405484 221.9375 281.9375 C218 282 218 282 215 280 C213.845 280 212.69 280 211.5 280 C208 280 208 280 205 278 C202.37468476 277.83286431 202.37468476 277.83286431 200 278 C200 277.34 200 276.68 200 276 C198.783125 275.938125 197.56625 275.87625 196.3125 275.8125 C190.82617521 275.22995838 186.08137821 273.26086244 181.015625 271.15625 C178.31511335 270.12082066 175.83438777 269.51038801 173 269 C171.65022151 268.36729133 170.31647119 267.69937532 169 267 C167.33927151 266.31867549 165.672233 265.65257873 164 265 C162.33333333 264.33333333 160.66666667 263.66666667 159 263 C159 262.34 159 261.68 159 261 C158.443125 261.2475 157.88625 261.495 157.3125 261.75 C155 262 155 262 152.9375 260.375 C151.968125 259.59125 150.99875 258.8075 150 258 C147.31645216 256.67748599 144.5871238 255.49103615 141.84765625 254.2890625 C135.52409366 251.42654445 129.74749127 247.87621504 124 244 C122.6808418 243.30570621 121.35350594 242.62469505 120 242 C120 241.34 120 240.68 120 240 C118.68 240 117.36 240 116 240 C116 239.34 116 238.68 116 238 C115.01 237.67 114.02 237.34 113 237 C109.14080461 234.567029 105.42380655 232.02100578 102 229 C102 228.34 102 227.68 102 227 C101.01 227 100.02 227 99 227 C98.34 226.34 97.68 225.68 97 225 C96.34 224.67 95.68 224.34 95 224 C95 223.34 95 222.68 95 222 C94.34 222 93.68 222 93 222 C92.67 221.34 92.34 220.68 92 220 C91.236875 219.54625 90.47375 219.0925 89.6875 218.625 C86.96286436 216.97754589 85.21116895 215.27620333 83 213 C81.24509032 211.46697546 79.46813385 209.96322152 77.68359375 208.46484375 C76.03521326 207.03063799 74.45482416 205.63170248 73 204 C73 203.34 73 202.68 73 202 C72.01 201.67 71.02 201.34 70 201 C70 200.34 70 199.68 70 199 C69.34 198.67 68.68 198.34 68 198 C66.92329184 196.88702965 65.88519147 195.73617656 64.875 194.5625 C64.33617187 193.94503906 63.79734375 193.32757812 63.2421875 192.69140625 C62 191 62 191 62 189 C61.01 188.67 60.02 188.34 59 188 C59 187.01 59 186.02 59 185 C58.34 185 57.68 185 57 185 C55.1875 182.9375 55.1875 182.9375 53 180 C52.54753906 179.41089844 52.09507812 178.82179688 51.62890625 178.21484375 C50.94634766 177.30412109 50.94634766 177.30412109 50.25 176.375 C49.82203125 175.80523437 49.3940625 175.23546875 48.953125 174.6484375 C48 173 48 173 48 170 C47.34 170 46.68 170 46 170 C46 169.34 46 168.68 46 168 C45.34 167.67 44.68 167.34 44 167 C43.01 166.01 43.01 166.01 42 165 C42 163.68 42 162.36 42 161 C41.071875 160.62875 41.071875 160.62875 40.125 160.25 C37.50998859 158.71175799 37.25882591 157.74033221 36 155 C34.85575572 152.6866965 33.70985352 150.374259 32.5625 148.0625 C32.11293945 147.15081055 32.11293945 147.15081055 31.65429688 146.22070312 C29.91045043 142.7140965 28.04145532 139.34056325 26 136 C24.98377342 134.00819591 23.98287008 132.00847365 23 130 C22.62875 129.34 22.2575 128.68 21.875 128 C20.73163028 125.3865835 20.38381278 122.81462704 20 120 C19.34 120 18.68 120 18 120 C17.3299166 117.87607494 16.66403203 115.75082476 16 113.625 C15.62875 112.44164062 15.2575 111.25828125 14.875 110.0390625 C14 107 14 107 14 105 C13.34 104.67 12.68 104.34 12 104 C11.4375 102.14453125 11.4375 102.14453125 11 99.8125 C10.45548904 97.11121516 9.8737023 94.6211069 9 92 C6.70008107 85.10024321 5.65189346 77.95709479 4.5078125 70.79296875 C4.01539084 67.80196544 4.01539084 67.80196544 2.875 64.1875 C1.89995036 60.63553344 2 57.67902822 2 54 C1.01 48.555 1.01 48.555 0 43 C0 28.81 0 14.62 0 0 Z " fill="#F49B6E" transform="translate(271,328)"/>
<path d="M0 0 C48.87598927 -0.23965234 97.75201955 -0.46254157 146.62843323 -0.59280396 C147.35179581 -0.59473675 148.07515839 -0.59666955 148.82044106 -0.59866092 C164.54098642 -0.64056144 180.26153803 -0.67934402 195.98209896 -0.71491461 C203.6914365 -0.73237735 211.40077234 -0.7505291 219.11010742 -0.76904297 C219.87727973 -0.7708736 220.64445205 -0.77270422 221.43487201 -0.77459032 C246.3021324 -0.83425154 271.16894749 -0.93941086 296.03593809 -1.06816109 C321.58963594 -1.20022651 347.14308734 -1.28639805 372.69712069 -1.31480986 C376.30626552 -1.31884404 379.91540951 -1.32340295 383.5245533 -1.3282814 C384.23488584 -1.32922532 384.94521838 -1.33016925 385.67707615 -1.33114177 C397.11260377 -1.34768741 408.54736948 -1.41262241 419.98258635 -1.49564848 C431.47854815 -1.5780831 442.97345839 -1.6084162 454.46976029 -1.58901928 C460.69944724 -1.58003522 466.92689793 -1.59397618 473.15618896 -1.66887665 C478.85900301 -1.73694706 484.55807539 -1.74050127 490.26106072 -1.69258453 C492.32453954 -1.68666218 494.38825053 -1.70448962 496.45127135 -1.74836455 C511.47703275 -2.04935838 511.47703275 -2.04935838 515.66997595 1.35648975 C518.98076721 5.15520246 520.90955882 9.45488889 523 14 C524.35422005 16.04895244 525.74452719 18.07505251 527.1875 20.0625 C531.35880655 26.05225869 535.47878393 32.07514533 539.5625 38.125 C540.19502686 39.05062744 540.82755371 39.97625488 541.47924805 40.92993164 C542.35770386 42.23692017 542.35770386 42.23692017 543.25390625 43.5703125 C543.78314697 44.35164551 544.3123877 45.13297852 544.85766602 45.93798828 C546 48 546 48 546 51 C546.66 51 547.32 51 548 51 C548 51.66 548 52.32 548 53 C548.66 53.33 549.32 53.66 550 54 C550.90329218 55.19353032 551.74781482 56.43181714 552.5625 57.6875 C553.0884375 58.49445313 553.614375 59.30140625 554.15625 60.1328125 C554.7646875 61.07898438 555.373125 62.02515625 556 63 C556.73944135 64.143321 557.47903243 65.28654519 558.21875 66.4296875 C560.49035536 69.94601464 562.74526624 73.47283376 565 77 C565.8353125 78.28970703 565.8353125 78.28970703 566.6875 79.60546875 C570 84.77183949 570 84.77183949 570 87 C570.66 87 571.32 87 572 87 C573.67154653 89.45019861 575.22586022 91.89764198 576.75 94.4375 C577.65535101 95.91591548 578.56159567 97.3937841 579.46875 98.87109375 C580.12423828 99.94399658 580.12423828 99.94399658 580.79296875 101.03857422 C584.49491725 107.05424052 588.47816933 112.76510332 592.8984375 118.2734375 C594 120 594 120 594 123 C594.66 123 595.32 123 596 123 C600 129.75 600 129.75 600 132 C600.66 132 601.32 132 602 132 C603.4375 134.1171875 603.4375 134.1171875 605 136.875 C607.16744189 140.68883379 607.16744189 140.68883379 610 144 C610.92187692 145.48413622 611.81372145 146.98704646 612.6875 148.5 C614.77093519 152.0227165 616.939027 155.41609839 619.3125 158.75 C622.49757519 163.22726579 625.48547008 167.8139499 628.43261719 172.44921875 C630.51416846 175.71439722 632.62861179 178.95175302 634.796875 182.16015625 C635.25795654 182.84311768 635.71903809 183.5260791 636.1940918 184.22973633 C637.09271635 185.55643003 637.99511127 186.88057924 638.90161133 188.2019043 C642 192.78076434 642 192.78076434 642 195 C642.66 195 643.32 195 644 195 C645.4375 197.15234375 645.4375 197.15234375 647 199.9375 C648.86077895 203.62387208 648.86077895 203.62387208 652 206 C652 207.32 652 208.64 652 210 C652.66 210 653.32 210 654 210 C654 210.99 654 211.98 654 213 C654.66 213 655.32 213 656 213 C658.36503039 215.99106784 659.91553181 218.02861582 660.25 221.875 C660.12625 222.926875 660.12625 222.926875 660 224 C656.79789524 225.60105238 653.32147201 225.13443455 649.8046627 225.12304783 C648.51212786 225.1247786 648.51212786 225.1247786 647.19348121 225.12654433 C644.27426277 225.12921435 641.35509827 225.12468566 638.43588257 225.12025452 C636.33463294 225.12069014 634.23338336 225.12156488 632.13213408 225.12284368 C626.33324483 225.12509039 620.5343739 225.12106495 614.73548698 225.11606562 C608.49142836 225.11176383 602.24737084 225.11320735 596.00331116 225.1139679 C585.17680941 225.1144933 574.35031506 225.11137951 563.52381516 225.10573006 C552.16574449 225.09981838 540.80767622 225.09596519 529.44960403 225.09487724 C528.744091 225.0948085 528.03857797 225.09473976 527.31168576 225.09466894 C523.72892082 225.09433062 520.14615587 225.09402923 516.56339093 225.09374207 C491.16921211 225.09164018 465.77503643 225.0848987 440.38085938 225.07543945 C415.7067059 225.066259 391.03255328 225.05917344 366.35839844 225.05493164 C365.21808133 225.05473435 365.21808133 225.05473435 364.05472751 225.05453308 C356.42055619 225.05321459 348.78638487 225.05193877 341.15221354 225.05069422 C325.59973615 225.04815782 310.04725881 225.04533657 294.49478149 225.04234314 C293.77966221 225.04220585 293.06454293 225.04206856 292.32775337 225.04192711 C244.55183425 225.03272234 196.77591697 225.0168559 149 225 C149 224.34 149 223.68 149 223 C148.01 222.67 147.02 222.34 146 222 C143 217.66666667 143 217.66666667 143 215 C142.34 215 141.68 215 141 215 C140.566875 214.071875 140.13375 213.14375 139.6875 212.1875 C138.25750087 209.08457247 138.25750087 209.08457247 136.375 207.4375 C134.4935748 205.47055547 134.35731038 203.64409683 134 201 C133.34 201 132.68 201 132 201 C132 200.34 132 199.68 132 199 C131.34 198.67 130.68 198.34 130 198 C128 195 128 195 128 192 C127.34 192 126.68 192 126 192 C126 191.34 126 190.68 126 190 C125.34 189.67 124.68 189.34 124 189 C122.8069002 187.26066174 121.66859727 185.48342137 120.5625 183.6875 C118.0569892 179.63397978 118.0569892 179.63397978 115.27734375 175.76953125 C114 174 114 174 114 172 C113.34 171.67 112.68 171.34 112 171 C111.03662007 169.70001744 110.1278282 168.35921786 109.25 167 C106.59151047 162.90749765 103.86720709 158.868478 101.1015625 154.84765625 C100 153 100 153 100 151 C99.34 151 98.68 151 98 151 C95.98217268 148.09432866 94.64505596 145.48330216 94 142 C93.34 142 92.68 142 92 142 C90.59765625 140.20703125 90.59765625 140.20703125 89.0625 137.8125 C88.53527344 136.99265625 88.00804687 136.1728125 87.46484375 135.328125 C86.98144531 134.55984375 86.49804688 133.7915625 86 133 C85.38125 132.030625 84.7625 131.06125 84.125 130.0625 C83 128 83 128 83 126 C82.34 126 81.68 126 81 126 C79.47551369 123.0173094 78.06059933 120.181798 77 117 C76.34 116.67 75.68 116.34 75 116 C73.7109375 114.22265625 73.7109375 114.22265625 72.375 112.0625 C71.92898438 111.35222656 71.48296875 110.64195312 71.0234375 109.91015625 C70 108 70 108 70 106 C68.515 105.505 68.515 105.505 67 105 C66.0078125 103.2265625 66.0078125 103.2265625 65 101 C63.45053165 98.64769831 61.84867076 96.33708086 60.2421875 94.0234375 C59 92 59 92 59 90 C58.34 90 57.68 90 57 90 C57 89.01 57 88.02 57 87 C56.01 86.67 55.02 86.34 54 86 C53.67 84.35 53.34 82.7 53 81 C52.34 81 51.68 81 51 81 C50.71125 80.195625 50.4225 79.39125 50.125 78.5625 C49.26737432 75.8673532 49.26737432 75.8673532 47 75 C45.25160484 72.34243936 44.00872518 70.02617555 43 67 C42.01 66.505 42.01 66.505 41 66 C40.13539047 64.59322608 39.33046991 63.14927451 38.5625 61.6875 C37.27204691 59.24008897 36.02415415 57.03154248 34.33984375 54.83203125 C33 53 33 53 33 51 C32.34 51 31.68 51 31 51 C30.67 50.01 30.34 49.02 30 48 C29.34 47.34 28.68 46.68 28 46 C20 35.51815182 20 35.51815182 20 32 C19.34 32 18.68 32 18 32 C16.47551369 29.0173094 15.06059933 26.181798 14 23 C13.34 22.67 12.68 22.34 12 22 C10.98133771 20.34467377 9.98189187 18.67739862 9 17 C8.34 16.34 7.68 15.68 7 15 C7 14.01 7 13.02 7 12 C6.01 11.67 5.02 11.34 4 11 C4 10.34 4 9.68 4 9 C3.525625 8.5875 3.05125 8.175 2.5625 7.75 C0.4191237 5.34941855 0.43570609 3.13031557 0 0 Z " fill="#F6C1A4" transform="translate(350,75)"/>
<path d="M0 0 C211.53 0 423.06 0 641 0 C637.48281124 7.03437752 634.13685683 13.19993584 629.8125 19.625 C629.27947266 20.43839844 628.74644531 21.25179687 628.19726562 22.08984375 C627.68486328 22.85683594 627.17246094 23.62382813 626.64453125 24.4140625 C626.18409424 25.1045166 625.72365723 25.7949707 625.24926758 26.50634766 C624.83700928 26.99925293 624.42475098 27.4921582 624 28 C623.34 28 622.68 28 622 28 C621.814375 28.66 621.62875 29.32 621.4375 30 C619.35846816 34.33884905 616.24303352 37.48057157 613 41 C608.0973151 46.3538 603.3346384 51.62869792 599.19140625 57.6015625 C598.60166016 58.29378906 598.60166016 58.29378906 598 59 C597.34 59 596.68 59 596 59 C596 59.66 596 60.32 596 61 C594.41796875 62.375 594.41796875 62.375 592.1875 64 C587.23494281 67.71834849 582.78281134 71.8139713 578.28515625 76.05859375 C576 78 576 78 574 78 C574 78.66 574 79.32 574 80 C570.80358226 82.39731331 567.99881788 84.38479725 564 85 C564 85.66 564 86.32 564 87 C561.71931443 88.69774354 559.44492671 90.26938536 557.0625 91.8125 C556.37679932 92.26318848 555.69109863 92.71387695 554.98461914 93.17822266 C550.76222578 95.92942484 546.50258246 98.54262588 542.02734375 100.8671875 C539.82579616 102.05680313 539.82579616 102.05680313 537.203125 103.91796875 C533.86080431 106.0904772 530.43503931 107.80313415 526.8125 109.4375 C525.83120117 109.8864563 525.83120117 109.8864563 524.83007812 110.34448242 C523.50953485 110.94811786 522.18809589 111.54979809 520.86572266 112.14941406 C519.17959776 112.91812109 517.50139283 113.7041426 515.82421875 114.4921875 C511.88473999 116.3338802 508.08794848 118.07882935 503.875 119.1875 C502.92625 119.455625 501.9775 119.72375 501 120 C500.67 120.66 500.34 121.32 500 122 C499.278125 121.938125 498.55625 121.87625 497.8125 121.8125 C494.43391345 122.0377391 492.8420678 123.22370762 490 125 C488.33645517 125.34857924 486.66921016 125.67964654 485 126 C483.05719964 126.60832395 481.12007785 127.23494212 479.1875 127.875 C472.27219004 130.03407867 465.37098537 131.41994978 458.23632812 132.62255859 C456.56704988 132.90429486 454.89930844 133.19516496 453.23242188 133.49072266 C435.78076932 136.52640656 418.26163186 137.14316347 400.58886719 137.06396484 C398.92343609 137.05982811 397.25800401 137.05607044 395.59257126 137.0526638 C391.25355923 137.04261427 386.9145866 137.02697576 382.57559776 137.00976467 C379.26476314 136.99721255 375.95392353 136.98773225 372.64307857 136.97838104 C352.33095006 136.92058061 332.01896485 136.81770245 311.70703506 136.71247292 C300.98468708 136.65707977 290.26234761 136.60802007 279.53993535 136.56685698 C271.89814807 136.53697044 264.2564169 136.49972623 256.61468959 136.45720994 C252.08972036 136.43224 247.56479055 136.4103691 243.03977203 136.39665604 C238.80065219 136.38368232 234.56167429 136.36146945 230.32263374 136.33261681 C228.7853481 136.32368 227.24803979 136.31788417 225.7107296 136.31578636 C207.28442655 136.28617336 188.64452569 134.42584187 170.80078125 129.72265625 C167.50184227 128.87146558 164.18286483 128.18100709 160.83984375 127.52734375 C159 127 159 127 156 125 C154.824375 124.835 153.64875 124.67 152.4375 124.5 C149 124 149 124 147 122 C145.00371336 121.6451046 143.00309329 121.31421071 141 121 C138.1875 120.0625 138.1875 120.0625 136 119 C135.67 118.34 135.34 117.68 135 117 C133.33433203 116.66171153 131.66733566 116.32997075 130 116 C127.0612188 114.95777053 124.1904773 113.76104695 121.3125 112.5625 C120.54099609 112.24990234 119.76949219 111.93730469 118.97460938 111.61523438 C118.23662109 111.31037109 117.49863281 111.00550781 116.73828125 110.69140625 C116.06837158 110.41498291 115.39846191 110.13855957 114.70825195 109.85375977 C113 109 113 109 111 107 C109.34561387 106.30341637 107.67745682 105.63903117 106 105 C104.65949948 104.34786461 103.32338632 103.68620031 102 103 C102 102.34 102 101.68 102 101 C100.68 101 99.36 101 98 101 C98 100.34 98 99.68 98 99 C97.32710938 98.77054688 96.65421875 98.54109375 95.9609375 98.3046875 C92.20043906 96.64768687 89.00088612 94.45015851 85.625 92.125 C81.92999713 89.59407324 78.28177074 87.11785295 74.3359375 84.9921875 C70.94654782 82.96807891 68.70817479 80.84958265 66 78 C63.87419974 76.09699996 61.68837941 74.26791944 59.5 72.4375 C58.94441406 71.96892578 58.38882813 71.50035156 57.81640625 71.01757812 C55.27708418 68.88156015 52.73429923 66.7975103 50.09375 64.78515625 C49.4028125 64.19605469 48.711875 63.60695313 48 63 C48 62.34 48 61.68 48 61 C47.01 60.67 46.02 60.34 45 60 C45 59.34 45 58.68 45 58 C44.01 57.67 43.02 57.34 42 57 C42 56.34 42 55.68 42 55 C41.01 54.67 40.02 54.34 39 54 C37.732004 52.53692769 36.46808142 51.06898058 35.26171875 49.5546875 C33.14897747 46.95137162 30.74743676 44.66735425 28.25 42.4375 C27 41 27 41 27 38 C26.34 38 25.68 38 25 38 C24.896875 37.360625 24.79375 36.72125 24.6875 36.0625 C24.460625 35.381875 24.23375 34.70125 24 34 C22.515 33.505 22.515 33.505 21 33 C19.2782101 30.82295717 17.688072 28.66093413 16.125 26.375 C15.70347656 25.77042969 15.28195312 25.16585937 14.84765625 24.54296875 C13.99221253 23.31604794 13.14002238 22.08685259 12.29101562 20.85546875 C10.99946177 18.99922645 9.67842782 17.16705119 8.3515625 15.3359375 C6.47882471 12.72115767 4.7934127 10.07624923 3.25 7.25 C2.84265625 6.51265625 2.4353125 5.7753125 2.015625 5.015625 C1 3 1 3 0 0 Z " fill="#DF5702" transform="translate(307,801)"/>
<path d="M0 0 C1.32 0 2.64 0 4 0 C4.23074219 0.52207031 4.46148437 1.04414063 4.69921875 1.58203125 C5.40241746 3.16909237 6.10844833 4.7548999 6.81640625 6.33984375 C7.56205235 8.01570182 8.30012636 9.69496941 9.02734375 11.37890625 C14.67057332 24.21173079 20.88804127 37.02813134 29.6015625 48.06640625 C31 50 31 50 31 52 C31.66 52 32.32 52 33 52 C34.9453125 54.1171875 34.9453125 54.1171875 37.125 56.875 C37.84945312 57.77992188 38.57390625 58.68484375 39.3203125 59.6171875 C41 62 41 62 41 64 C41.99 64.33 42.98 64.66 44 65 C45.7890625 66.7421875 45.7890625 66.7421875 47.625 68.875 C48.54152344 69.92300781 48.54152344 69.92300781 49.4765625 70.9921875 C51 73 51 73 52 76 C52.99 76.33 53.98 76.66 55 77 C55 77.66 55 78.32 55 79 C55.84498047 79.36158203 55.84498047 79.36158203 56.70703125 79.73046875 C59.46904434 81.25969235 61.40764126 83.12569672 63.6875 85.3125 C85.1499824 105.11742717 110.69541218 120.53962734 137 133 C137.82870605 133.39574219 138.65741211 133.79148437 139.51123047 134.19921875 C151.63559683 139.95901275 163.8044073 144.98312262 176.55517578 149.17333984 C178.94165572 149.98027225 181.29573687 150.84829401 183.65234375 151.73828125 C225.31286864 167.11335379 272.0163743 169.25150885 315.94628906 167.75585938 C344.67307936 166.79325568 373.3730158 167.04164964 402.11047363 167.33660889 C407.32630238 167.38809111 412.54218561 167.43153633 417.75808716 167.47490501 C422.86652667 167.51811601 427.97492195 167.56542296 433.08331299 167.61400223 C435.48137492 167.63652335 437.8794463 167.65806574 440.27752686 167.67850876 C452.07031383 167.78189468 463.8585874 167.95595527 475.64453125 168.38525391 C476.57412659 168.41320227 477.50372192 168.44115063 478.46148682 168.46994591 C489.45339091 168.92552816 499.97086494 172.10036712 508 180 C508.66 180.99 509.32 181.98 510 183 C510.99 183.33 511.98 183.66 513 184 C511.61556897 188.1532931 508.77234182 189.13752631 505.125 191.125 C504.48691406 191.48464844 503.84882812 191.84429688 503.19140625 192.21484375 C500.49085235 193.72016294 497.93920463 195.02026512 495 196 C494.67 196.66 494.34 197.32 494 198 C490.9375 198.625 490.9375 198.625 488 199 C488 199.66 488 200.32 488 201 C487.01515625 201.56074219 486.0303125 202.12148438 485.015625 202.69921875 C482.30633601 204.24553248 479.61101613 205.81347521 476.921875 207.39453125 C475.53143053 208.20083223 474.14080416 209.00681961 472.75 209.8125 C472.04359375 210.23208984 471.3371875 210.65167969 470.609375 211.08398438 C468.78235235 212.13417637 466.89395762 213.07596561 465 214 C462 213 462 213 460.875 211.0625 C460.441875 210.0415625 460.441875 210.0415625 460 209 C459.17798016 206.80882227 459.17798016 206.80882227 456.93359375 206.1484375 C456.10988281 205.89320313 455.28617188 205.63796875 454.4375 205.375 C453.61121094 205.11460937 452.78492188 204.85421875 451.93359375 204.5859375 C451.29550781 204.39257812 450.65742187 204.19921875 450 204 C450 203.34 450 202.68 450 202 C439.62000815 201.02034472 429.30860694 200.79784185 418.89086914 200.70288086 C417.10200607 200.68339454 415.31314707 200.66353207 413.52429199 200.64332581 C408.69939344 200.58991021 403.87445543 200.54179926 399.04949117 200.49474788 C393.96821952 200.44433842 388.88699924 200.38917945 383.80577087 200.33460999 C375.26629372 200.24356888 366.72678878 200.15571224 358.18725586 200.07006836 C347.2902434 199.96076898 336.39328955 199.84647957 325.49634647 199.73049068 C316.0590124 199.63005496 306.62165689 199.53169089 297.18429637 199.43377614 C294.18618214 199.40261426 291.18807032 199.37122649 288.18995857 199.33982658 C283.45113455 199.29035974 278.71229973 199.24209128 273.9734534 199.19481099 C272.18908791 199.17690873 270.40472541 199.15870614 268.62036622 199.14018714 C260.65983982 199.05806036 252.7012264 198.98029908 244.74020386 199.02810669 C243.70771483 199.03405381 242.67522581 199.04000093 241.61144924 199.04612827 C239.83124547 199.06031299 238.05107078 199.08113006 236.27106571 199.11127377 C230.68999305 199.16294177 225.79585772 198.31040016 220.484375 196.66015625 C217.8535843 195.96109394 215.65065072 195.86405484 212.9375 195.9375 C209 196 209 196 206 194 C204.845 194 203.69 194 202.5 194 C199 194 199 194 196 192 C193.37468476 191.83286431 193.37468476 191.83286431 191 192 C191 191.34 191 190.68 191 190 C189.783125 189.938125 188.56625 189.87625 187.3125 189.8125 C181.82617521 189.22995838 177.08137821 187.26086244 172.015625 185.15625 C169.31511335 184.12082066 166.83438777 183.51038801 164 183 C162.65022151 182.36729133 161.31647119 181.69937532 160 181 C158.33927151 180.31867549 156.672233 179.65257873 155 179 C153.33333333 178.33333333 151.66666667 177.66666667 150 177 C150 176.34 150 175.68 150 175 C149.443125 175.2475 148.88625 175.495 148.3125 175.75 C146 176 146 176 143.9375 174.375 C142.968125 173.59125 141.99875 172.8075 141 172 C138.31645216 170.67748599 135.5871238 169.49103615 132.84765625 168.2890625 C126.52409366 165.42654445 120.74749127 161.87621504 115 158 C113.6808418 157.30570621 112.35350594 156.62469505 111 156 C111 155.34 111 154.68 111 154 C109.68 154 108.36 154 107 154 C107 153.34 107 152.68 107 152 C106.01 151.67 105.02 151.34 104 151 C100.14080461 148.567029 96.42380655 146.02100578 93 143 C93 142.34 93 141.68 93 141 C92.01 141 91.02 141 90 141 C89.34 140.34 88.68 139.68 88 139 C87.34 138.67 86.68 138.34 86 138 C86 137.34 86 136.68 86 136 C85.34 136 84.68 136 84 136 C83.67 135.34 83.34 134.68 83 134 C82.236875 133.54625 81.47375 133.0925 80.6875 132.625 C77.96286436 130.97754589 76.21116895 129.27620333 74 127 C72.24509032 125.46697546 70.46813385 123.96322152 68.68359375 122.46484375 C67.03521326 121.03063799 65.45482416 119.63170248 64 118 C64 117.34 64 116.68 64 116 C62.515 115.505 62.515 115.505 61 115 C61 114.34 61 113.68 61 113 C60.01 112.505 60.01 112.505 59 112 C57.92329184 110.88702965 56.88519147 109.73617656 55.875 108.5625 C55.33617187 107.94503906 54.79734375 107.32757812 54.2421875 106.69140625 C53 105 53 105 53 103 C52.01 102.67 51.02 102.34 50 102 C50 101.01 50 100.02 50 99 C49.34 99 48.68 99 48 99 C46.1875 96.9375 46.1875 96.9375 44 94 C43.54753906 93.41089844 43.09507812 92.82179688 42.62890625 92.21484375 C41.94634766 91.30412109 41.94634766 91.30412109 41.25 90.375 C40.82203125 89.80523437 40.3940625 89.23546875 39.953125 88.6484375 C39 87 39 87 39 84 C38.34 84 37.68 84 37 84 C37 83.34 37 82.68 37 82 C36.01 81.505 36.01 81.505 35 81 C34.01 80.01 34.01 80.01 33 79 C33 77.68 33 76.36 33 75 C32.071875 74.62875 32.071875 74.62875 31.125 74.25 C28.50998859 72.71175799 28.25882591 71.74033221 27 69 C25.85575572 66.6866965 24.70985352 64.374259 23.5625 62.0625 C23.26279297 61.45470703 22.96308594 60.84691406 22.65429688 60.22070312 C20.91045043 56.7140965 19.04145532 53.34056325 17 50 C15.98377342 48.00819591 14.98287008 46.00847365 14 44 C13.62875 43.34 13.2575 42.68 12.875 42 C11.73163028 39.3865835 11.38381278 36.81462704 11 34 C10.34 34 9.68 34 9 34 C8.3299166 31.87607494 7.66403203 29.75082476 7 27.625 C6.62875 26.44164062 6.2575 25.25828125 5.875 24.0390625 C5 21 5 21 5 19 C4.34 18.67 3.68 18.34 3 18 C2.4375 16.14453125 2.4375 16.14453125 2 13.8125 C1.42911614 10.93981239 0.79031207 8.40404483 -0.1875 5.625 C-1 3 -1 3 0 0 Z " fill="#E6A681" transform="translate(280,414)"/>
<path d="M0 0 C15.46112375 13.08413658 24.07771236 31.97370518 25.85595703 51.98242188 C27.28744578 72.29023006 22.94235437 92.34684732 10.02734375 108.54296875 C7.82568482 111.05915038 5.55709072 113.45831155 3.1953125 115.82421875 C2.58171875 116.44941406 1.968125 117.07460937 1.3359375 117.71875 C-13.93213028 132.17121587 -34.81503601 137.41326225 -55.3046875 138.07421875 C-79.37713064 137.34058239 -101.3055454 129.88281328 -118.234375 112.30078125 C-133.63590718 94.6175406 -138.09392045 72.62839299 -136.8046875 49.82421875 C-134.93182933 31.39311569 -126.6110879 15.89649597 -113.8046875 2.82421875 C-112.93457031 1.89996094 -112.93457031 1.89996094 -112.046875 0.95703125 C-82.78816474 -27.51444914 -30.42522669 -23.60285691 0 0 Z M-82.8046875 32.82421875 C-90.03993141 42.00741294 -93.52582408 52.11424097 -92.5546875 63.84375 C-91.04244116 74.57799855 -87.04893278 82.60550963 -78.8046875 89.82421875 C-68.29974113 96.337013 -57.86016584 98.65963927 -45.60546875 96.17578125 C-35.75684029 93.22497579 -28.37724455 88.03615332 -23.0234375 79.1875 C-18.13778865 69.71372578 -17.19103021 59.11758502 -19.49609375 48.69921875 C-22.43070581 39.85854643 -27.89646966 31.91995377 -35.8046875 26.82421875 C-51.24338402 19.49142359 -70.12988485 20.1494161 -82.8046875 32.82421875 Z " fill="#F8713D" transform="translate(884.8046875,1017.17578125)"/>
<path d="M0 0 C13.24125 -0.061875 26.4825 -0.12375 40.125 -0.1875 C44.27852051 -0.21481201 48.43204102 -0.24212402 52.71142578 -0.27026367 C57.85327148 -0.28381348 57.85327148 -0.28381348 60.27389526 -0.28633118 C61.93497136 -0.29088451 63.59603866 -0.30132222 65.25704956 -0.31672668 C82.9562271 -0.47241128 100.71820555 1.0649753 114.25 13.9765625 C121.87506976 22.79304941 124.29850652 32.8936822 123.875 44.39453125 C122.7522681 54.25352071 119.24360695 62.48312501 111.6875 69.0625 C111.01074219 69.58972656 110.33398438 70.11695313 109.63671875 70.66015625 C107.86928145 71.9207548 107.86928145 71.9207548 107 74 C107.99 74.2784375 107.99 74.2784375 109 74.5625 C117.12646881 78.45643297 122.49029908 85.11029866 125.96875 93.2734375 C129.45575753 103.2501535 129.30416271 114.30754338 125 124 C118.27621386 136.36769148 108.88217312 143.21476041 95.56811523 147.56665039 C86.70624258 149.93181204 77.55497023 149.3697902 68.45703125 149.29296875 C66.70097133 149.28854926 64.94490745 149.28549406 63.18884277 149.28381348 C56.73000097 149.26818486 50.27124417 149.22630122 43.8125 149.1875 C29.354375 149.125625 14.89625 149.06375 0 149 C0 99.83 0 50.66 0 0 Z M43 33 C43 41.25 43 49.5 43 58 C47.54230412 58.10800723 52.08203539 58.18733842 56.625 58.25 C57.91019531 58.28351563 59.19539062 58.31703125 60.51953125 58.3515625 C69.62974694 58.61769546 69.62974694 58.61769546 77 54 C79.97051564 49.54422653 79.62737491 45.22557394 79 40 C76.90091927 36.32660873 74.8925852 34.53036794 71 33 C67.90079282 32.72479244 67.90079282 32.72479244 64.484375 32.8046875 C63.23398437 32.81113281 61.98359375 32.81757812 60.6953125 32.82421875 C59.39335938 32.84097656 58.09140625 32.85773438 56.75 32.875 C54.77386719 32.88853516 54.77386719 32.88853516 52.7578125 32.90234375 C49.50513084 32.92591391 46.25254256 32.96178475 43 33 Z M43 90 C43 98.91 43 107.82 43 117 C47.50036622 117.08122319 51.99925368 117.14061723 56.5 117.1875 C57.7684375 117.21263672 59.036875 117.23777344 60.34375 117.26367188 C68.42424606 117.32680075 74.96134004 117.23092797 81.5 112 C83.8106026 107.3787948 83.86033969 103.05820406 83 98 C81.36778949 94.61517 79.13986021 92.58144699 75.76489258 90.85986328 C72.37590807 89.80591154 69.49753072 89.7744891 65.94921875 89.8046875 C65.29041214 89.8075174 64.63160553 89.81034729 63.95283508 89.81326294 C61.86419938 89.82439076 59.77600444 89.84948052 57.6875 89.875 C56.26498018 89.88503941 54.8424536 89.89416358 53.41992188 89.90234375 C49.94631127 89.92259804 46.47364461 89.96175804 43 90 Z " fill="#F8713D" transform="translate(933,1002)"/>
<path d="M0 0 C12.395625 -0.061875 24.79125 -0.12375 37.5625 -0.1875 C41.44588135 -0.21481201 45.3292627 -0.24212402 49.33032227 -0.27026367 C54.15026855 -0.28381348 54.15026855 -0.28381348 56.42173767 -0.28633118 C57.97527155 -0.29087444 59.5287963 -0.3012899 61.08226013 -0.31672668 C74.55689047 -0.44368277 88.2157873 0.11816927 100.375 6.625 C101.04072021 6.9741748 101.70644043 7.32334961 102.39233398 7.68310547 C114.52652409 14.33834106 121.07399688 24.63679002 125.15234375 37.6875 C126.1144466 41.44723833 126.69408516 45.13964612 127 49 C127.05414062 49.64195313 127.10828125 50.28390625 127.1640625 50.9453125 C127.73345828 64.55904799 123.913517 78.51032231 115.625 89.375 C112.36704336 92.63295664 108.91896199 95.56038128 105 98 C104.34 98 103.68 98 103 98 C107.85378649 107.97890266 112.98542535 117.79404816 118.25 127.5625 C118.85215332 128.67995605 119.45430664 129.79741211 120.07470703 130.94873047 C122.47209798 135.38233484 124.86807267 139.80661598 127.421875 144.15234375 C129 147 129 147 129 149 C112.5 149 96 149 79 149 C74.05 139.161875 74.05 139.161875 69 129.125 C67.95585938 127.05492676 66.91171875 124.98485352 65.8359375 122.85205078 C65.0153078 121.21663048 64.19497474 119.58106129 63.375 117.9453125 C62.94316406 117.09187256 62.51132812 116.23843262 62.06640625 115.35913086 C61.66035156 114.54726318 61.25429688 113.73539551 60.8359375 112.89892578 C60.48063965 112.1927713 60.1253418 111.48661682 59.75927734 110.75906372 C59 109 59 109 59 107 C54.05 107 49.1 107 44 107 C44 120.86 44 134.72 44 149 C29.48 149 14.96 149 0 149 C0 99.83 0 50.66 0 0 Z M43 36 C43 47.88 43 59.76 43 72 C48.94 72.0928125 48.94 72.0928125 55 72.1875 C56.84851563 72.22846802 56.84851563 72.22846802 58.734375 72.27026367 C66.67444358 72.3300456 72.88936557 71.97538945 78.875 66.25 C82.56641999 60.60429884 83.49601956 55.726188 82.54296875 49.14453125 C81.48848507 44.97970004 79.2132328 42.13235061 76.125 39.25 C71.54323553 36.55484443 67.20864189 35.75042637 61.9453125 35.8046875 C60.94516113 35.80968262 59.94500977 35.81467773 58.91455078 35.81982422 C57.03872314 35.84713623 57.03872314 35.84713623 55.125 35.875 C49.123125 35.936875 49.123125 35.936875 43 36 Z " fill="#F8713D" transform="translate(604,1002)"/>
<path d="M0 0 C12.40905262 10.30941472 21.15537423 24.08781331 24.640625 39.8515625 C24.89875977 41.00736816 25.15689453 42.16317383 25.42285156 43.35400391 C25.61331055 44.22718262 25.80376953 45.10036133 26 46 C19.86225943 46.27276304 13.7280689 46.47187964 7.58569336 46.60424805 C5.4988052 46.65943447 3.41233994 46.73440906 1.3269043 46.82983398 C-16.07424807 47.60589301 -16.07424807 47.60589301 -20.85009766 43.62329102 C-22.61863948 40.80048905 -23.79367075 38.09349395 -25 35 C-29.69110289 29.37302485 -35.91831343 26.51566931 -43 25 C-55.25683666 23.92101042 -65.26384253 24.90392489 -74.9921875 32.98828125 C-82.38066067 40.39112888 -85.12125486 50.81709726 -85.375 61 C-85.0890707 71.9963643 -81.94705577 80.7385022 -74.30078125 88.7890625 C-66.67713897 95.74456534 -58.22855942 97.33485962 -48.12890625 97.2109375 C-37.82561362 96.5163335 -30.50016678 92.06591003 -23.6875 84.5 C-21.06157243 81.43014771 -19.92832891 78.85665781 -18 75 C-3.15 75 11.7 75 27 75 C21.40797512 97.36809951 13.00933592 114.81499016 -6.88012695 127.21972656 C-27.5639051 139.43261922 -52.18887301 141.58420264 -75.359375 136.22265625 C-89.86620711 132.10059298 -100.60782811 125.62518023 -111 115 C-111.66644531 114.36578125 -112.33289063 113.7315625 -113.01953125 113.078125 C-126.17216922 99.65827768 -131.15299452 78.22547209 -131 60 C-130.11274737 37.16836834 -122.83745284 16.88181363 -106 1 C-76.57288264 -24.0213625 -30.13225955 -23.2238011 0 0 Z " fill="#F8713D" transform="translate(226,1016)"/>
<path d="M0 0 C91.71841155 0 91.71841155 0 110 16 C121.13491892 27.66114382 125.55158941 42.31636649 125.27661133 58.19775391 C124.7780027 72.7361317 120.34284184 85.93978054 110.125 96.625 C91.10448761 113.90583138 68.21366226 113.24834525 44 113 C44 124.88 44 136.76 44 149 C29.48 149 14.96 149 0 149 C0 99.83 0 50.66 0 0 Z M43 37 C43 49.87 43 62.74 43 76 C60.30063212 77.28441137 60.30063212 77.28441137 75.625 70.64453125 C79.44839521 66.59303576 80.96128376 62.04406435 81.03125 56.54296875 C80.69978885 51.01585405 79.8228235 47.21490796 76 43 C70.48697251 38.83409832 65.95874455 36.86000766 59.015625 36.90234375 C58.17290039 36.90484131 57.33017578 36.90733887 56.46191406 36.90991211 C55.40198242 36.91901611 54.34205078 36.92812012 53.25 36.9375 C48.17625 36.9684375 48.17625 36.9684375 43 37 Z " fill="#F8713D" transform="translate(459,1002)"/>
<path d="M0 0 C8.80673114 7.52982094 14.85471936 16.35399501 17.11328125 27.859375 C17.11328125 31.489375 17.11328125 35.119375 17.11328125 38.859375 C3.58328125 38.859375 -9.94671875 38.859375 -23.88671875 38.859375 C-24.87671875 35.559375 -25.86671875 32.259375 -26.88671875 28.859375 C-27.21671875 27.869375 -27.54671875 26.879375 -27.88671875 25.859375 C-30.2629722 24.67546277 -30.2629722 24.67546277 -32.88671875 23.859375 C-34.37171875 23.364375 -34.37171875 23.364375 -35.88671875 22.859375 C-42.3591284 22.37371078 -48.40740393 21.92550795 -53.88671875 25.859375 C-55.96527955 27.43633132 -55.96527955 27.43633132 -56.88671875 29.859375 C-56.96839493 34.02463731 -56.96839493 34.02463731 -55.88671875 37.859375 C-48.5496653 44.82050169 -37.93632446 46.93950965 -28.38671875 49.359375 C-11.59439591 53.63080092 4.60386772 59.27533715 15.11328125 73.859375 C21.11174733 84.37335305 21.54937772 96.77051839 19.46484375 108.51171875 C16.28869042 119.92686811 10.18001845 128.56162421 0.11328125 134.859375 C-19.00319471 145.40937 -42.97762191 146.44328487 -63.82421875 140.859375 C-77.25067103 136.91397829 -88.64444268 129.15547517 -95.82421875 116.96875 C-100.14688988 108.38697643 -100.88671875 100.44531 -100.88671875 90.859375 C-87.02671875 90.859375 -73.16671875 90.859375 -58.88671875 90.859375 C-57.89671875 94.159375 -56.90671875 97.459375 -55.88671875 100.859375 C-52.90923977 104.62040108 -50.39643768 106.38615726 -45.88671875 107.859375 C-39.16570318 108.50708238 -32.61176378 108.88237962 -26.88671875 104.859375 C-24.41644795 102.3891042 -24.11800212 101.32862548 -23.88671875 97.859375 C-25.09820299 93.3365005 -26.38515664 90.83547476 -30.26171875 88.171875 C-37.11592868 84.36673495 -44.80976574 82.57949645 -52.38671875 80.78125 C-68.38269962 76.9289693 -84.79185427 71.5507045 -94.19921875 57.109375 C-101.00883743 44.78897499 -101.74300215 31.09386815 -97.93359375 17.6171875 C-95.41603043 10.98509905 -91.18760742 5.5292055 -85.88671875 0.859375 C-85.34789062 0.37855469 -84.8090625 -0.10226562 -84.25390625 -0.59765625 C-62.2444155 -18.78541535 -22.10461754 -16.39151612 0 0 Z " fill="#F8713D" transform="translate(366.88671875,1011.140625)"/>
<path d="M0 0 C33.99 0 67.98 0 103 0 C103 11.55 103 23.1 103 35 C102 36 102 36 99.63987732 36.12025452 C98.59396927 36.11803391 97.54806122 36.11581329 96.47045898 36.11352539 C95.28931015 36.11344986 94.10816132 36.11337433 92.89122009 36.11329651 C91.6058284 36.10813522 90.32043671 36.10297394 88.99609375 36.09765625 C87.0338662 36.09553383 87.0338662 36.09553383 85.03199768 36.09336853 C81.54837141 36.0895441 78.06478661 36.07971446 74.58117676 36.06866455 C71.02873292 36.05844882 67.47628241 36.05387056 63.92382812 36.04882812 C56.94919996 36.03809212 49.97460624 36.02049593 43 36 C43 42.6 43 49.2 43 56 C60.82 56 78.64 56 97 56 C97 67.88 97 79.76 97 92 C79.18 92 61.36 92 43 92 C43 99.26 43 106.52 43 114 C63.46 114 83.92 114 105 114 C105 125.55 105 137.1 105 149 C70.35 149 35.7 149 0 149 C0 99.83 0 50.66 0 0 Z " fill="#F8713D" transform="translate(1082,1002)"/>
<path d="M0 0 C3.15862147 2.96098804 5.52468961 6.05374315 7.90625 9.6640625 C8.26753494 10.20884247 8.62881989 10.75362244 9.00105286 11.31491089 C10.17167226 13.08213705 11.33579148 14.85354551 12.5 16.625 C13.31356298 17.85513745 14.12761301 19.0849529 14.94213867 20.31445312 C16.55924528 22.75664125 18.17408814 25.2002974 19.78662109 27.64550781 C22.61752413 31.93770237 25.46176122 36.22095697 28.3125 40.5 C28.77817383 41.19963867 29.24384766 41.89927734 29.72363281 42.62011719 C33.85874325 48.81847245 38.06218756 54.96949278 42.28637695 61.10742188 C42.78484131 61.83251953 43.28330566 62.55761719 43.796875 63.3046875 C44.28847843 63.99683924 44.78008185 64.68899098 45.28658235 65.40211701 C47 68 47 68 48.55654681 71.03145957 C52.03568698 77.43628587 52.03568698 77.43628587 58.05653453 81.10923815 C61.8645405 81.53130285 65.57945501 81.57155191 69.40023804 81.48101807 C70.86788058 81.49039084 72.33549726 81.50503185 73.8030411 81.52446246 C77.8251817 81.56254427 81.84369664 81.52613399 85.86559367 81.47733045 C90.2084571 81.43776868 94.55091551 81.46762868 98.89382935 81.4889679 C106.42201299 81.51648117 113.94907541 81.50012419 121.47715378 81.4539566 C132.39821938 81.38706267 143.3185019 81.38679996 154.23972423 81.40240797 C172.00816807 81.42600095 189.77610346 81.39606949 207.54443359 81.33251953 C224.71830679 81.27121114 241.89193102 81.23449042 259.06591797 81.23193359 C260.11991088 81.23176791 261.17390379 81.23160222 262.25983588 81.23143151 C267.55243816 81.23075518 272.84504031 81.23057525 278.13764262 81.23064089 C314.76276571 81.23056126 351.38755296 81.17869777 388.01251221 81.06983948 C402.48396067 81.02704224 416.95539113 80.98886326 431.42690821 80.98144278 C432.88446621 80.98060557 434.34202407 80.97941656 435.79958145 80.97783414 C445.71267349 80.96784357 455.61010051 81.07204007 465.51675415 81.42724609 C469.23468478 81.55946876 472.95323421 81.67108066 476.671875 81.78125 C477.39792435 81.80276123 478.12397369 81.82427246 478.87202454 81.84643555 C485.96576784 82.04564804 493.05105731 82.02936901 500.14648438 81.98046875 C516.43281436 81.91605347 532.7219706 82.53059751 549 83 C549 83.33 549 83.66 549 84 C481.33878659 84.92172233 413.68208829 85.10013232 346.015625 85.09765625 C344.9623142 85.09762838 343.90900341 85.09760051 342.8237741 85.09757179 C315.65038872 85.09663108 288.47700986 85.08601158 261.30362844 85.07202661 C245.53054429 85.06399973 229.75746075 85.05860595 213.984375 85.05493164 C212.85976884 85.05466892 211.73516269 85.05440619 210.57647756 85.05413551 C204.92985458 85.05282966 199.28323159 85.05156615 193.6366086 85.05032361 C147.42440256 85.04010066 101.21220153 85.02262019 55 85 C55 84.34 55 83.68 55 83 C54.01 82.67 53.02 82.34 52 82 C49 77.66666667 49 77.66666667 49 75 C48.34 75 47.68 75 47 75 C46.566875 74.071875 46.13375 73.14375 45.6875 72.1875 C44.25750087 69.08457247 44.25750087 69.08457247 42.375 67.4375 C40.4935748 65.47055547 40.35731038 63.64409683 40 61 C39.34 61 38.68 61 38 61 C38 60.34 38 59.68 38 59 C37.01 58.505 37.01 58.505 36 58 C34 55 34 55 34 52 C33.34 52 32.68 52 32 52 C32 51.34 32 50.68 32 50 C31.34 49.67 30.68 49.34 30 49 C28.8069002 47.26066174 27.66859727 45.48342137 26.5625 43.6875 C24.0569892 39.63397978 24.0569892 39.63397978 21.27734375 35.76953125 C20 34 20 34 20 32 C19.34 31.67 18.68 31.34 18 31 C17.03662007 29.70001744 16.1278282 28.35921786 15.25 27 C12.59151047 22.90749765 9.86720709 18.868478 7.1015625 14.84765625 C6 13 6 13 6 11 C5.34 11 4.68 11 4 11 C2.95107762 9.36368108 1.95093297 7.69514137 1 6 C0.67 5.67 0.34 5.34 0 5 C-0.04063832 3.33382885 -0.042721 1.66611905 0 0 Z " fill="#E6A238" transform="translate(444,215)"/>
<path d="M0 0 C8 0 8 0 10.42114258 2.32324219 C11.07236084 3.38704102 11.7235791 4.45083984 12.39453125 5.546875 C12.75342941 6.11448547 13.11232758 6.68209595 13.48210144 7.26690674 C14.61983194 9.07908553 15.71615268 10.91255177 16.8125 12.75 C17.56699318 13.97040365 18.32413126 15.18917634 19.08398438 16.40625 C20.48185828 18.64792536 21.85930584 20.89784043 23.22583008 23.15917969 C24.71689496 25.54668911 26.26773427 27.78467616 28 30 C28.39268066 29.410979 28.78536133 28.82195801 29.18994141 28.21508789 C38.3515625 14.47265625 38.3515625 14.47265625 40.21972656 11.71142578 C41.38251556 9.94045286 42.49695002 8.13650639 43.55371094 6.30029297 C44.28122559 5.06690186 44.28122559 5.06690186 45.0234375 3.80859375 C45.43255371 3.07310303 45.84166992 2.3376123 46.26318359 1.57983398 C48 0 48 0 55 0 C55 17.82 55 35.64 55 54 C52.69 54 50.38 54 48 54 C47.67 41.79 47.34 29.58 47 17 C42.39190147 24.55017755 42.39190147 24.55017755 37.84765625 32.13867188 C33.25094809 39.42601337 33.25094809 39.42601337 29.8972168 40.96484375 C27.82421875 41.15625 27.82421875 41.15625 24 40 C21.7176573 37.9689175 20.31743867 35.6392768 18.8125 33 C18.41353516 32.35160156 18.01457031 31.70320313 17.60351562 31.03515625 C16.37917934 29.03745085 15.18974807 27.01849591 14 25 C11.525 21.04 11.525 21.04 9 17 C8.67 29.21 8.34 41.42 8 54 C5.36 54 2.72 54 0 54 C0 36.18 0 18.36 0 0 Z " fill="#F8713D" transform="translate(309,1190)"/>
<path d="M0 0 C3.13906326 2.60475462 5.69564309 5.08692927 7 9 C7.125 12.25 7.125 12.25 7 15 C4.69 15 2.38 15 0 15 C-0.391875 14.071875 -0.78375 13.14375 -1.1875 12.1875 C-3.24379873 8.57125051 -4.13940346 7.47852633 -8 6 C-12.66853548 5.44623632 -16.68397157 5.52622976 -21.125 7.125 C-23.28577545 8.92250157 -23.28577545 8.92250157 -23.5 12 C-22.94336257 15.33982458 -22.54593374 15.9381071 -20 18 C-17.91517218 18.94000291 -17.91517218 18.94000291 -15.578125 19.61328125 C-14.71703125 19.89236328 -13.8559375 20.17144531 -12.96875 20.45898438 C-11.17381139 21.02248163 -9.37695254 21.5799027 -7.578125 22.13085938 C-1.76504436 24.02962604 2.94888516 26.28695358 7 31 C8.7792361 36.3377083 8.83210936 41.16242516 6.5 46.3125 C2.22201395 50.911335 -1.26944144 52.70754673 -7.57421875 53.3828125 C-15.96013483 53.63313835 -22.09802475 53.17347011 -28.55078125 47.6796875 C-32.36958828 43.74255124 -32.72986834 40.22254544 -33 35 C-30.36 35 -27.72 35 -25 35 C-24.62875 36.093125 -24.2575 37.18625 -23.875 38.3125 C-22.62059846 41.18136278 -22.00425887 41.99685655 -19.375 43.9375 C-12.95039049 45.96006225 -7.24761737 45.56312507 -1 43 C-0.9175 41.741875 -0.835 40.48375 -0.75 39.1875 C-0.70359375 38.47980469 -0.6571875 37.77210937 -0.609375 37.04296875 C-0.83181221 34.90234531 -0.83181221 34.90234531 -2.4609375 33.421875 C-6.79448998 30.99508561 -11.53332953 29.77111317 -16.26953125 28.33789062 C-22.05503401 26.51367636 -26.77064565 24.5266016 -30.875 19.875 C-32.58225925 15.51200413 -32.86303771 11.61005975 -32 7 C-29.71911721 2.36047705 -26.41003906 -0.14622021 -21.625 -1.9375 C-13.97014283 -3.99842308 -7.19513633 -3.4602564 0 0 Z " fill="#F8713D" transform="translate(798,1192)"/>
<path d="M0 0 C6 0 6 0 7.95043945 1.91186523 C8.49917725 2.78528564 9.04791504 3.65870605 9.61328125 4.55859375 C10.22107422 5.50154297 10.82886719 6.44449219 11.45507812 7.41601562 C12.06802734 8.41310547 12.68097656 9.41019531 13.3125 10.4375 C14.55841698 12.39464379 15.80450159 14.35168089 17.05078125 16.30859375 C17.59387939 17.18314209 18.13697754 18.05769043 18.6965332 18.95874023 C19.84142544 20.91322732 19.84142544 20.91322732 21 22 C21.35304199 21.44014404 21.70608398 20.88028809 22.06982422 20.3034668 C23.67115392 17.76456146 25.27307041 15.22602687 26.875 12.6875 C27.43058594 11.80642578 27.98617187 10.92535156 28.55859375 10.01757812 C29.09355469 9.17001953 29.62851562 8.32246094 30.1796875 7.44921875 C30.91807861 6.27879028 30.91807861 6.27879028 31.67138672 5.0847168 C32.76012949 3.37637895 33.8763002 1.6855497 35 0 C36.98 0 38.96 0 41 0 C41 13.2 41 26.4 41 40 C39.02 40 37.04 40 35 40 C34.505 27.13 34.505 27.13 34 14 C30.75276038 18.89063846 30.75276038 18.89063846 27.50805664 23.78295898 C27.10449951 24.38954346 26.70094238 24.99612793 26.28515625 25.62109375 C25.66459351 26.55586548 25.66459351 26.55586548 25.03149414 27.50952148 C24 29 24 29 23 30 C20.6953125 30.38671875 20.6953125 30.38671875 18 30 C15.8671875 27.76953125 15.8671875 27.76953125 13.875 24.8125 C12.88113281 23.36810547 12.88113281 23.36810547 11.8671875 21.89453125 C10.19139329 19.29669964 8.59053393 16.65088988 7 14 C6.67 22.58 6.34 31.16 6 40 C4.02 40 2.04 40 0 40 C0 26.8 0 13.6 0 0 Z " fill="#F8713D" transform="translate(956,1207)"/>
<path d="M0 0 C1.65 0 3.3 0 5 0 C6.9921875 2.01953125 6.9921875 2.01953125 8.875 4.8125 C9.55304687 5.80507812 10.23109375 6.79765625 10.9296875 7.8203125 C13.99203029 12.52360878 17.04608509 17.22758122 20 22 C24.81542872 15.53356715 29.26892032 9.08812683 33.1640625 2.01953125 C34.07285156 1.01986328 34.07285156 1.01986328 35 0 C36.98 0 38.96 0 41 0 C41 13.2 41 26.4 41 40 C39.02 40 37.04 40 35 40 C34.505 27.13 34.505 27.13 34 14 C30.6268557 19.2509209 30.6268557 19.2509209 27.30029297 24.53125 C23.84639431 29.72950285 23.84639431 29.72950285 19.96875 30.96875 C15.45513777 29.49588706 13.98265635 26.44974486 11.625 22.5 C10.09875 20.025 8.5725 17.55 7 15 C6.67 23.25 6.34 31.5 6 40 C4.02 40 2.04 40 0 40 C0 26.8 0 13.6 0 0 Z " fill="#F8713D" transform="translate(576,1207)"/>
<path d="M0 0 C2.89980644 2.13877127 4.71779422 4.26028508 6.7265625 7.2734375 C6.7265625 8.5934375 6.7265625 9.9134375 6.7265625 11.2734375 C3.9765625 11.5859375 3.9765625 11.5859375 0.7265625 11.2734375 C-1.3984375 8.8984375 -1.3984375 8.8984375 -3.2734375 6.2734375 C-7.45611788 3.67147285 -11.48525731 3.71667236 -16.2734375 4.2734375 C-20.01041919 5.89821215 -22.12107067 7.82965057 -24.2734375 11.2734375 C-25.86233917 16.04014251 -25.84949113 19.84701899 -23.9609375 24.5234375 C-21.67808023 28.24364935 -20.43830127 29.88514958 -16.2734375 31.2734375 C-11.99962604 31.6896139 -8.36931211 31.74990472 -4.3984375 30.0234375 C-1.20893747 27.39679042 0.41896115 25.19624154 1.7265625 21.2734375 C-3.2234375 21.2734375 -8.1734375 21.2734375 -13.2734375 21.2734375 C-13.2734375 19.2934375 -13.2734375 17.3134375 -13.2734375 15.2734375 C-6.0134375 15.2734375 1.2465625 15.2734375 8.7265625 15.2734375 C7.21538039 28.87407648 7.21538039 28.87407648 1.2890625 34.6484375 C-4.76994491 38.49073488 -10.22214404 39.06460647 -17.2734375 38.2734375 C-23.21588035 36.50974451 -26.78958933 33.29427752 -30.2734375 28.2734375 C-33.01631396 22.43999601 -33.40028564 16.2140322 -31.62109375 9.9921875 C-29.37691217 4.98371359 -25.90856392 1.21105052 -21.2734375 -1.7265625 C-14.31368657 -4.08482521 -6.35228141 -3.68589168 0 0 Z " fill="#F8713D" transform="translate(526.2734375,1209.7265625)"/>
<path d="M0 0 C8.70382011 0.00735204 17.40763873 0.00866756 26.11146151 0.00979571 C41.61815959 0.0119546 57.12485225 0.01852615 72.63154741 0.02809832 C87.64521902 0.03735619 102.65888912 0.04439535 117.67256303 0.04860613 C118.60666422 0.04886885 119.5407654 0.04913158 120.50317268 0.04940226 C125.19186926 0.05070782 129.88056586 0.05197141 134.56926246 0.05321417 C173.12648623 0.06348769 211.68370395 0.08101651 250.24092241 0.10353777 C250.24092241 0.43353777 250.24092241 0.76353777 250.24092241 1.10353777 C218.51538875 1.82378718 186.80030928 2.28133659 155.06698604 2.4068608 C149.52541442 2.42956544 143.98386317 2.45656758 138.4423079 2.48291704 C129.12649166 2.52661854 119.81066662 2.56743995 110.49482866 2.60622332 C101.12209395 2.64525932 91.74937534 2.6868003 82.37666459 2.73122332 C36.46974545 2.94877425 -9.43603254 3.13805688 -55.34352593 3.09753654 C-78.37464303 3.07754293 -101.39888664 3.15457246 -124.42692427 3.56709978 C-128.14693982 3.6322006 -131.8670777 3.68961723 -135.58720259 3.74806902 C-142.64461306 3.85989897 -149.701884 3.97869563 -156.75907759 4.10353777 C-156.75907759 3.11353777 -156.75907759 2.12353777 -156.75907759 1.10353777 C-156.02249206 1.10612422 -155.28590654 1.10871066 -154.52700023 1.11137548 C-137.7620261 1.1619298 -121.01456621 1.02586254 -104.25284295 0.68158636 C-69.50221529 -0.01436556 -34.75624158 -0.03020074 0 0 Z " fill="#E28F5F" transform="translate(676.7590775936842,272.8964622281492)"/>
<path d="M0 0 C5 0 5 0 6.54223633 1.27832031 C6.96786865 1.87225586 7.39350098 2.46619141 7.83203125 3.078125 C8.5595459 4.07005859 8.5595459 4.07005859 9.30175781 5.08203125 C10.0495752 6.15517578 10.0495752 6.15517578 10.8125 7.25 C11.33295898 7.97058594 11.85341797 8.69117188 12.38964844 9.43359375 C16.75242296 15.51617884 20.92074634 21.72422514 25 28 C25.33 18.76 25.66 9.52 26 0 C27.98 0 29.96 0 32 0 C32 13.2 32 26.4 32 40 C25 40 25 40 23.30664062 38.68994141 C22.92701172 38.08327637 22.54738281 37.47661133 22.15625 36.8515625 C21.71410156 36.17480469 21.27195312 35.49804688 20.81640625 34.80078125 C20.38199219 34.08277344 19.94757812 33.36476563 19.5 32.625 C18.61540038 31.24166469 17.72997059 29.85885992 16.84375 28.4765625 C15.9053125 26.99929688 14.966875 25.52203125 14 24 C11.69 20.7 9.38 17.4 7 14 C6.67 22.58 6.34 31.16 6 40 C4.02 40 2.04 40 0 40 C0 26.8 0 13.6 0 0 Z " fill="#F8713D" transform="translate(661,1207)"/>
<path d="M0 0 C2.63037109 0.28662109 2.63037109 0.28662109 4.28027344 1.78027344 C4.75416504 2.47072754 5.22805664 3.16118164 5.71630859 3.87255859 C6.25513672 4.63955078 6.79396484 5.40654297 7.34912109 6.19677734 C7.89568359 7.01017578 8.44224609 7.82357422 9.00537109 8.66162109 C9.54419922 9.43634766 10.08302734 10.21107422 10.63818359 11.00927734 C12.31573489 13.42575005 13.97285119 15.85636464 15.63037109 18.28662109 C17.94037109 21.58662109 20.25037109 24.88662109 22.63037109 28.28662109 C22.96037109 19.04662109 23.29037109 9.80662109 23.63037109 0.28662109 C25.28037109 0.28662109 26.93037109 0.28662109 28.63037109 0.28662109 C28.63037109 13.48662109 28.63037109 26.68662109 28.63037109 40.28662109 C22.63037109 40.28662109 22.63037109 40.28662109 20.7434082 38.56176758 C19.95848999 37.37176147 19.95848999 37.37176147 19.15771484 36.15771484 C18.56796875 35.28695313 17.97822266 34.41619141 17.37060547 33.51904297 C16.77570313 32.59671875 16.18080078 31.67439453 15.56787109 30.72412109 C14.36867566 28.93113675 13.16945732 27.13816772 11.97021484 25.34521484 C11.44806396 24.54398193 10.92591309 23.74274902 10.38793945 22.91723633 C8.20932265 19.65642288 5.90977917 16.47779241 3.63037109 13.28662109 C3.30037109 22.19662109 2.97037109 31.10662109 2.63037109 40.28662109 C0.65037109 40.28662109 -1.32962891 40.28662109 -3.36962891 40.28662109 C-3.39427666 34.75073576 -3.41246386 29.21488209 -3.42456055 23.67895508 C-3.42960135 21.7941838 -3.43643389 19.90941645 -3.44506836 18.0246582 C-3.45714508 15.32160474 -3.46285959 12.61860279 -3.46728516 9.91552734 C-3.47244644 9.06761124 -3.47760773 8.21969513 -3.48292542 7.34608459 C-3.48312085 5.32591041 -3.43169101 3.30584175 -3.36962891 1.28662109 C-2.36962891 0.28662109 -2.36962891 0.28662109 0 0 Z " fill="#F8713D" transform="translate(418.36962890625,1206.71337890625)"/>
<path d="M0 0 C2.70259463 2.63329734 4.09098388 4.85909679 5.4375 8.375 C5.4375 9.365 5.4375 10.355 5.4375 11.375 C2.6875 11.75 2.6875 11.75 -0.5625 11.375 C-1.94373963 9.40777992 -3.27738126 7.40631672 -4.5625 5.375 C-8.8410333 3.52482344 -12.2849847 4.94916157 -16.5625 6.375 C-16.98030879 8.74805578 -16.98030879 8.74805578 -16.5625 11.375 C-13.10184627 13.87751281 -9.63704047 15.07545134 -5.5625 16.25 C2.77568011 19.00201018 2.77568011 19.00201018 5.4375 23.375 C6.11481366 26.85340742 6.16177139 29.90191909 5.4375 33.375 C2.91073961 36.72125024 1.39816458 38.05477847 -2.5625 39.375 C-9.93619027 40.03259519 -15.67524636 40.1349072 -21.5625 35.375 C-23.63995104 32.09128706 -24.5625 30.25840615 -24.5625 26.375 C-21.75 26.0625 -21.75 26.0625 -18.5625 26.375 C-17.5560725 28.03779327 -16.55664593 29.70483484 -15.5625 31.375 C-10.55772368 33.49240537 -6.84054099 33.45215122 -1.5625 32.375 C-1.5625 30.065 -1.5625 27.755 -1.5625 25.375 C-2.26375 25.13265625 -2.965 24.8903125 -3.6875 24.640625 C-20.07175797 18.85270778 -20.07175797 18.85270778 -23.5625 14.375 C-24.25220566 10.98394717 -24.15424251 7.77887666 -23.5625 4.375 C-17.97339262 -3.02679086 -8.17185745 -3.72751393 0 0 Z " fill="#F8713D" transform="translate(873.5625,1208.625)"/>
<path d="M0 0 C6.71949314 0.58164178 13.42047592 1.24405728 20.1171875 2.046875 C20.81666504 2.12969727 21.51614258 2.21251953 22.23681641 2.29785156 C27.18336777 2.92555527 27.18336777 2.92555527 28.3046875 4.046875 C30.90784867 4.15263839 33.48487991 4.19291982 36.08882141 4.19163513 C37.32696989 4.1969254 37.32696989 4.1969254 38.59013146 4.20232254 C41.3782084 4.21306481 44.16625124 4.21670018 46.9543457 4.22045898 C48.94485114 4.22676041 50.93535515 4.23352575 52.92585754 4.24072266 C57.22510293 4.25542698 61.52434275 4.26713812 65.82360268 4.27667046 C72.62780446 4.29209576 79.43195933 4.31604804 86.23612976 4.34156799 C105.58943718 4.41283222 124.94277222 4.47242749 144.29614258 4.52368164 C154.97531745 4.55203946 165.65444639 4.58745674 176.33357304 4.63033539 C183.08996333 4.65703767 189.84630162 4.67498683 196.60273421 4.68637264 C200.82178741 4.69553892 205.04077797 4.71292074 209.25979424 4.73255157 C211.20755141 4.73998694 213.1553247 4.7441057 215.10309601 4.74454689 C244.04027416 4.75638731 244.04027416 4.75638731 254.3046875 13.046875 C253.9746875 13.706875 253.6446875 14.366875 253.3046875 15.046875 C250.9946875 14.056875 248.6846875 13.066875 246.3046875 12.046875 C246.3046875 11.386875 246.3046875 10.726875 246.3046875 10.046875 C235.92469565 9.06721972 225.61329444 8.84471685 215.19555664 8.74975586 C213.40669357 8.73026954 211.61783457 8.71040707 209.82897949 8.69020081 C205.00408094 8.63678521 200.17914293 8.58867426 195.35417867 8.54162288 C190.27290702 8.49121342 185.19168674 8.43605445 180.11045837 8.38148499 C171.57098122 8.29044388 163.03147628 8.20258724 154.49194336 8.11694336 C143.5949309 8.00764398 132.69797705 7.89335457 121.80103397 7.77736568 C112.3636999 7.67692996 102.92634439 7.57856589 93.48898387 7.48065114 C90.49086964 7.44948926 87.49275782 7.41810149 84.49464607 7.38670158 C79.75582205 7.33723474 75.01698723 7.28896628 70.2781409 7.24168599 C68.49377541 7.22378373 66.70941291 7.20558114 64.92505372 7.18706214 C56.96452732 7.10493536 49.0059139 7.02717408 41.04489136 7.07498169 C40.01240233 7.08092881 38.97991331 7.08687593 37.91613674 7.09300327 C36.13593297 7.10718799 34.35575828 7.12800506 32.57575321 7.15814877 C26.99468055 7.20981677 22.10054522 6.35727516 16.7890625 4.70703125 C14.1582718 4.00796894 11.95533822 3.91092984 9.2421875 3.984375 C5.3046875 4.046875 5.3046875 4.046875 2.3046875 2.046875 C-0.02730638 1.96782436 -2.36363872 1.95888731 -4.6953125 2.046875 C-2.6953125 0.046875 -2.6953125 0.046875 0 0 Z " fill="#EC9760" transform="translate(483.6953125,605.953125)"/>
<path d="M0 0 C1.98 0 3.96 0 6 0 C8.28086958 5.53497589 10.55947109 11.0708777 12.8359375 16.60766602 C13.61134932 18.49269085 14.38739005 20.37745711 15.1640625 22.26196289 C16.27768138 24.96433523 17.38906544 27.66761699 18.5 30.37109375 C18.84998047 31.21900986 19.19996094 32.06692596 19.56054688 32.9405365 C22 38.88612829 22 38.88612829 22 40 C19.69 40 17.38 40 15 40 C14.01 37.69 13.02 35.38 12 33 C6.06 33 0.12 33 -6 33 C-6.99 35.31 -7.98 37.62 -9 40 C-11.31 40 -13.62 40 -16 40 C-11.10954964 26.48168194 -5.58945165 13.24219049 0 0 Z M2 11 C0.02 15.95 -1.96 20.9 -4 26 C0.62 26 5.24 26 10 26 C8.02 21.05 6.04 16.1 4 11 C3.34 11 2.68 11 2 11 Z " fill="#F8713D" transform="translate(388,1207)"/>
<path d="M0 0 C1.65 0 3.3 0 5 0 C8.95118624 7.51400329 12.28957022 15.24123109 15.50415039 23.08959961 C16.32464015 25.09212989 17.1511614 27.09209412 17.97851562 29.09179688 C22 38.85070824 22 38.85070824 22 40 C19.69 40 17.38 40 15 40 C14.01 37.69 13.02 35.38 12 33 C5.73 32.67 -0.54 32.34 -7 32 C-7.495 34.475 -7.495 34.475 -8 37 C-8.33 37.99 -8.66 38.98 -9 40 C-11.31 40 -13.62 40 -16 40 C-13.34134037 31.40974595 -9.81853628 23.20570562 -6.3125 14.9375 C-5.69956186 13.48515596 -5.08692914 12.03268298 -4.47460938 10.58007812 C-2.98659023 7.05188891 -1.49444799 3.52547065 0 0 Z M2 10 C-0.97 17.92 -0.97 17.92 -4 26 C0.29 26 4.58 26 9 26 C8.16583712 21.82918558 7.21232487 18.96469139 5.4375 15.1875 C4.98246094 14.21167969 4.52742188 13.23585938 4.05859375 12.23046875 C3.70925781 11.49441406 3.35992187 10.75835938 3 10 C2.67 10 2.34 10 2 10 Z " fill="#F8713D" transform="translate(469,1207)"/>
<path d="M0 0 C1.00023193 0.00523682 2.00046387 0.01047363 3.03100586 0.01586914 C4.1105957 0.0190918 5.19018555 0.02231445 6.30249023 0.02563477 C8.00695312 0.03820313 8.00695312 0.03820313 9.74584961 0.05102539 C11.45611328 0.05779297 11.45611328 0.05779297 13.20092773 0.06469727 C16.02845312 0.07652792 18.85587601 0.09301129 21.68334961 0.11352539 C21.68334961 2.09352539 21.68334961 4.07352539 21.68334961 6.11352539 C15.41334961 6.11352539 9.14334961 6.11352539 2.68334961 6.11352539 C2.68334961 9.74352539 2.68334961 13.37352539 2.68334961 17.11352539 C8.62334961 17.11352539 14.56334961 17.11352539 20.68334961 17.11352539 C20.68334961 19.09352539 20.68334961 21.07352539 20.68334961 23.11352539 C14.74334961 23.11352539 8.80334961 23.11352539 2.68334961 23.11352539 C2.68334961 27.07352539 2.68334961 31.03352539 2.68334961 35.11352539 C9.28334961 35.11352539 15.88334961 35.11352539 22.68334961 35.11352539 C22.68334961 36.76352539 22.68334961 38.41352539 22.68334961 40.11352539 C14.10334961 40.11352539 5.52334961 40.11352539 -3.31665039 40.11352539 C-3.33955773 34.5775855 -3.3594853 29.04180884 -3.37158203 23.50585938 C-3.37662283 21.62108809 -3.38345537 19.73632074 -3.39208984 17.8515625 C-3.40416656 15.14850903 -3.40988108 12.44550708 -3.41430664 9.74243164 C-3.41946793 8.89451553 -3.42462921 8.04659943 -3.4299469 7.17298889 C-3.43014234 5.15281471 -3.3787125 3.13274605 -3.31665039 1.11352539 C-2.31665039 0.11352539 -2.31665039 0.11352539 0 0 Z " fill="#F8713D" transform="translate(545.316650390625,1206.886474609375)"/>
<path d="M0 0 C8.25 0 16.5 0 25 0 C25 1.98 25 3.96 25 6 C18.73 6 12.46 6 6 6 C6 9.63 6 13.26 6 17 C11.61 17 17.22 17 23 17 C23 18.98 23 20.96 23 23 C17.39 23 11.78 23 6 23 C6 26.96 6 30.92 6 35 C12.27 35 18.54 35 25 35 C25 36.65 25 38.3 25 40 C16.75 40 8.5 40 0 40 C0 26.8 0 13.6 0 0 Z " fill="#F8713D" transform="translate(627,1207)"/>
<path d="M0 0 C7.92 0 15.84 0 24 0 C24 1.98 24 3.96 24 6 C18.06 6 12.12 6 6 6 C6 9.63 6 13.26 6 17 C11.61 17 17.22 17 23 17 C23 18.98 23 20.96 23 23 C17.39 23 11.78 23 6 23 C6 26.96 6 30.92 6 35 C12.27 35 18.54 35 25 35 C25 36.65 25 38.3 25 40 C16.75 40 8.5 40 0 40 C0 26.8 0 13.6 0 0 Z " fill="#F8713D" transform="translate(923,1207)"/>
<path d="M0 0 C2.625 -0.5625 2.625 -0.5625 6 0 C8.49444689 2.70075452 10.20970816 5.80339312 12 9 C12.73669922 10.28777344 12.73669922 10.28777344 13.48828125 11.6015625 C14.68329036 13.72228289 15.85293852 15.85306634 17 18 C21.01229308 12.16769769 24.66380014 6.24430328 28 0 C30.31 0 32.62 0 35 0 C33.70851115 3.46064039 32.19445183 6.47518597 30.21484375 9.58984375 C21.44325505 23.71831106 21.44325505 23.71831106 20 40 C18.02 40 16.04 40 14 40 C14.11794922 38.75863281 14.11794922 38.75863281 14.23828125 37.4921875 C14.50371293 24.55588554 8.16337924 15.64116078 1.17749023 5.12207031 C0 3 0 3 0 0 Z " fill="#F8713D" transform="translate(811,1207)"/>
<path d="M0 0 C1.34888732 0.00015905 2.69778075 0.00584927 4.04663086 0.01586914 C5.10991859 0.01799156 5.10991859 0.01799156 6.19468689 0.02015686 C8.46699173 0.02577096 10.73919936 0.03832576 13.01147461 0.05102539 C14.54858257 0.05603858 16.08569206 0.0606018 17.62280273 0.06469727 C21.39823103 0.07574497 25.17358632 0.09301898 28.94897461 0.11352539 C28.94897461 2.09352539 28.94897461 4.07352539 28.94897461 6.11352539 C24.65897461 6.11352539 20.36897461 6.11352539 15.94897461 6.11352539 C15.94897461 17.33352539 15.94897461 28.55352539 15.94897461 40.11352539 C13.96897461 40.11352539 11.98897461 40.11352539 9.94897461 40.11352539 C9.94897461 28.89352539 9.94897461 17.67352539 9.94897461 6.11352539 C5.32897461 6.11352539 0.70897461 6.11352539 -4.05102539 6.11352539 C-4.05102539 0.15073432 -4.05102539 0.15073432 0 0 Z " fill="#F8713D" transform="translate(703.051025390625,1206.886474609375)"/>
<path d="M0 0 C10.56 0 21.12 0 32 0 C32 1.98 32 3.96 32 6 C27.71 6 23.42 6 19 6 C19 17.22 19 28.44 19 40 C17.02 40 15.04 40 13 40 C13 28.78 13 17.56 13 6 C8.71 6 4.42 6 0 6 C0 4.02 0 2.04 0 0 Z " fill="#F8713D" transform="translate(884,1207)"/>
<path d="M0 0 C1.61130295 0.03541649 1.61130295 0.03541649 3.25515747 0.07154846 C6.67286539 0.14754877 10.09031464 0.23152501 13.5078125 0.31640625 C17.9843093 0.42226935 22.46087674 0.52463475 26.9375 0.625 C28.03303696 0.64996552 29.12857391 0.67493103 30.25730896 0.70065308 C37.42388867 0.85566104 44.58302372 0.90275655 51.75090027 0.8735199 C60.94486826 0.8488357 70.13073062 1.1209227 79.3203125 1.37890625 C81.11262393 1.42731637 82.90494164 1.47549434 84.69726562 1.5234375 C89.00919128 1.63926835 93.32102125 1.75817995 97.6328125 1.87890625 C97.6328125 2.20890625 97.6328125 2.53890625 97.6328125 2.87890625 C33.6128125 2.87890625 -30.4071875 2.87890625 -96.3671875 2.87890625 C-96.3671875 2.54890625 -96.3671875 2.21890625 -96.3671875 1.87890625 C-95.43503922 1.86859879 -94.50289093 1.85829132 -93.54249573 1.84767151 C-84.73026864 1.74964218 -75.91810753 1.6468822 -67.1059885 1.53956699 C-62.57629746 1.48455378 -58.04659975 1.43117007 -53.5168457 1.3815918 C-49.14014928 1.33362743 -44.76352474 1.28127629 -40.38691521 1.2259655 C-38.72251122 1.20568625 -37.05808764 1.18695082 -35.39364815 1.16983223 C-24.39975259 1.07130634 -24.39975259 1.07130634 -13.45780945 0.08363342 C-8.98492227 -0.35438051 -4.48597604 -0.1201365 0 0 Z " fill="#EBAD88" transform="translate(895.3671875,296.12109375)"/>
<path d="M0 0 C1.32 0 2.64 0 4 0 C4.33 1.98 4.66 3.96 5 6 C4.34 6 3.68 6 3 6 C10.87342363 28.78482724 19.28996619 51.96458635 33 72 C32.67 72.66 32.34 73.32 32 74 C29 73 29 73 28.02734375 71.37109375 C27.68832031 70.58863281 27.34929687 69.80617188 27 69 C25.85575572 66.6866965 24.70985352 64.374259 23.5625 62.0625 C23.26279297 61.45470703 22.96308594 60.84691406 22.65429688 60.22070312 C20.91045043 56.7140965 19.04145532 53.34056325 17 50 C15.98377342 48.00819591 14.98287008 46.00847365 14 44 C13.62875 43.34 13.2575 42.68 12.875 42 C11.73163028 39.3865835 11.38381278 36.81462704 11 34 C10.34 34 9.68 34 9 34 C8.3299166 31.87607494 7.66403203 29.75082476 7 27.625 C6.62875 26.44164062 6.2575 25.25828125 5.875 24.0390625 C5 21 5 21 5 19 C4.34 18.67 3.68 18.34 3 18 C2.4375 16.14453125 2.4375 16.14453125 2 13.8125 C1.42911614 10.93981239 0.79031207 8.40404483 -0.1875 5.625 C-1 3 -1 3 0 0 Z " fill="#F2BA9F" transform="translate(280,414)"/>
<path d="M0 0 C57.75 0 115.5 0 175 0 C175 0.33 175 0.66 175 1 C117.25 1 59.5 1 0 1 C0 0.67 0 0.34 0 0 Z " fill="#FF0000" transform="translate(540,713)"/>
<path d="M0 0 C1.1725131 0.95117134 2.33787015 1.91117009 3.5 2.875 C4.47453125 3.67550781 4.47453125 3.67550781 5.46875 4.4921875 C6.22671875 5.23855469 6.22671875 5.23855469 7 6 C7 6.66 7 7.32 7 8 C7.66 8 8.32 8 9 8 C10.375 9.43359375 10.375 9.43359375 12 11.4375 C16.97075913 17.29589469 22.59591373 22.73060916 29 27 C29 27.99 29 28.98 29 30 C29.66 30.33 30.32 30.66 31 31 C30.01 31 29.02 31 28 31 C28 30.34 28 29.68 28 29 C27.34 29 26.68 29 26 29 C25.67 28.34 25.34 27.68 25 27 C23.8553125 26.319375 23.8553125 26.319375 22.6875 25.625 C19.96286436 23.97754589 18.21116895 22.27620333 16 20 C14.24509032 18.46697546 12.46813385 16.96322152 10.68359375 15.46484375 C9.03521326 14.03063799 7.45482416 12.63170248 6 11 C6 10.34 6 9.68 6 9 C5.01 8.67 4.02 8.34 3 8 C3 7.34 3 6.68 3 6 C2.34 5.67 1.68 5.34 1 5 C-0.03145371 3.69084721 -1.03542166 2.35917857 -2 1 C-1.34 0.67 -0.68 0.34 0 0 Z " fill="#F3B9A0" transform="translate(338,521)"/>
<path d="M0 0 C4.88007937 4.56347775 8.3520266 10.10069231 12.04711914 15.61767578 C13.3141256 17.50241817 14.59906722 19.37406979 15.88476562 21.24609375 C16.69123812 22.44455021 17.49661569 23.64374436 18.30078125 24.84375 C19.03466064 25.92849609 19.76854004 27.01324219 20.5246582 28.13085938 C22 31 22 31 21.73120117 33.38476562 C21.48990479 33.91779297 21.2486084 34.45082031 21 35 C20.67 34.01 20.34 33.02 20 32 C19.34 31.67 18.68 31.34 18 31 C17.03662007 29.70001744 16.1278282 28.35921786 15.25 27 C12.59151047 22.90749765 9.86720709 18.868478 7.1015625 14.84765625 C6 13 6 13 6 11 C5.34 11 4.68 11 4 11 C2.95107762 9.36368108 1.95093297 7.69514137 1 6 C0.67 5.67 0.34 5.34 0 5 C-0.04063832 3.33382885 -0.042721 1.66611905 0 0 Z " fill="#EAA972" transform="translate(444,215)"/>
<path d="M0 0 C6.71949314 0.58164178 13.42047592 1.24405728 20.1171875 2.046875 C20.81666504 2.12969727 21.51614258 2.21251953 22.23681641 2.29785156 C27.18336777 2.92555527 27.18336777 2.92555527 28.3046875 4.046875 C29.93725508 4.20402154 31.57604088 4.29772914 33.21484375 4.36328125 C34.20419922 4.40517578 35.19355469 4.44707031 36.21289062 4.49023438 C37.25380859 4.52955078 38.29472656 4.56886719 39.3671875 4.609375 C40.41197266 4.65255859 41.45675781 4.69574219 42.53320312 4.74023438 C45.12355634 4.84668725 47.71400936 4.9487026 50.3046875 5.046875 C50.3046875 5.376875 50.3046875 5.706875 50.3046875 6.046875 C25.87168367 7.73916578 25.87168367 7.73916578 16.71875 4.7421875 C14.10433082 3.98916709 11.95315911 3.90691867 9.2421875 3.984375 C5.3046875 4.046875 5.3046875 4.046875 2.3046875 2.046875 C-0.02730638 1.96782436 -2.36363872 1.95888731 -4.6953125 2.046875 C-2.6953125 0.046875 -2.6953125 0.046875 0 0 Z " fill="#EB9A71" transform="translate(483.6953125,605.953125)"/>
<path d="M0 0 C11.64830283 -0.46387047 22.65909651 0.45542411 32 8 C31.67 8.66 31.34 9.32 31 10 C28.69 9.01 26.38 8.02 24 7 C24 6.34 24 5.68 24 5 C22.62714844 4.90912109 22.62714844 4.90912109 21.2265625 4.81640625 C20.03804687 4.73261719 18.84953125 4.64882813 17.625 4.5625 C16.44164062 4.48128906 15.25828125 4.40007813 14.0390625 4.31640625 C11 4 11 4 9 3 C9 2.34 9 1.68 9 1 C6.03 1 3.06 1 0 1 C0 0.67 0 0.34 0 0 Z " fill="#EBA55A" transform="translate(706,611)"/>
<path d="M0 0 C5.94263007 0.65579433 11.41974567 2.1804165 17.125 3.9375 C18.44564453 4.33485352 18.44564453 4.33485352 19.79296875 4.74023438 C23.93811381 6.00003336 28.01377375 7.28807296 32 9 C30.02 9.99 30.02 9.99 28 11 C28 10.34 28 9.68 28 9 C26.783125 8.938125 25.56625 8.87625 24.3125 8.8125 C18.82617521 8.22995838 14.08137821 6.26086244 9.015625 4.15625 C6.08121926 2.9276765 6.08121926 2.9276765 3.171875 2.46875 C2.09679687 2.23671875 2.09679687 2.23671875 1 2 C0.67 1.34 0.34 0.68 0 0 Z " fill="#EFA370" transform="translate(443,595)"/>
<path d="M0 0 C4.06551096 2.97785478 8.09492635 6.00115157 12 9.1875 C12.5775 9.65542969 13.155 10.12335937 13.75 10.60546875 C15 12 15 12 15 15 C15.66 15.33 16.32 15.66 17 16 C16.01 16 15.02 16 14 16 C14 15.34 14 14.68 14 14 C13.34 14 12.68 14 12 14 C11.67 13.34 11.34 12.68 11 12 C10.236875 11.54625 9.47375 11.0925 8.6875 10.625 C5.99056105 8.99429273 4.14600637 7.28907346 2 5 C1.4225 4.4225 0.845 3.845 0.25 3.25 C-0.1625 2.8375 -0.575 2.425 -1 2 C-0.67 1.34 -0.34 0.68 0 0 Z " fill="#F2B894" transform="translate(352,536)"/>
<path d="M0 0 C3.0148635 2.90621977 5.65605355 5.96433449 8.25 9.25 C8.95640625 10.14203125 9.6628125 11.0340625 10.390625 11.953125 C10.92171875 12.62859375 11.4528125 13.3040625 12 14 C11.01 14.66 10.02 15.32 9 16 C8.67 14.68 8.34 13.36 8 12 C7.34 12 6.68 12 6 12 C4.62517293 10.36739286 3.29352333 8.69774938 2 7 C1.34 6.34 0.68 5.68 0 5 C-0.125 2.375 -0.125 2.375 0 0 Z " fill="#F2B799" transform="translate(322,501)"/>
<path d="M0 0 C10 11.92307692 10 11.92307692 10 16 C6.45872595 14.56039512 4.85501088 12.85033201 2.75 9.6875 C1.96882813 8.54861328 1.96882813 8.54861328 1.171875 7.38671875 C-0.14446007 4.705783 -0.22956074 2.94776853 0 0 Z " fill="#E69B6B" transform="translate(466,247)"/>
<path d="M0 0 C3.49441809 3.2355723 6.64675619 6.84324556 9 11 C9 11.99 9 12.98 9 14 C8.01 13.67 7.02 13.34 6 13 C4.8125 10.4375 4.8125 10.4375 4 8 C3.34 8 2.68 8 2 8 C0.74335022 5.09399739 0 3.20395416 0 0 Z " fill="#E38F58" transform="translate(489,282)"/>
<path d="M0 0 C3.57885399 1.19295133 4.18134909 2.24467062 6.25 5.3125 C7.06210937 6.48232422 7.06210937 6.48232422 7.890625 7.67578125 C9 10 9 10 8.671875 12.29296875 C8.45015625 12.85628906 8.2284375 13.41960937 8 14 C7.67 13.01 7.34 12.02 7 11 C6.34 10.67 5.68 10.34 5 10 C3.91344156 8.51090825 2.87731501 6.98455142 1.875 5.4375 C1.33617187 4.61121094 0.79734375 3.78492188 0.2421875 2.93359375 C-0.16773438 2.29550781 -0.57765625 1.65742188 -1 1 C-0.67 0.67 -0.34 0.34 0 0 Z " fill="#ECAE65" transform="translate(457,236)"/>
<path d="M0 0 C3.9520518 0.58172725 6.22095053 2.55157741 9.25 5.0625 C10.14203125 5.79597656 11.0340625 6.52945313 11.953125 7.28515625 C12.62859375 7.85105469 13.3040625 8.41695312 14 9 C13.67 9.66 13.34 10.32 13 11 C9.56247993 9.4722133 6.81046312 7.49818944 4 5 C4 4.34 4 3.68 4 3 C3.01 3 2.02 3 1 3 C0.67 2.01 0.34 1.02 0 0 Z " fill="#F1B581" transform="translate(369,552)"/>
<path d="M0 0 C1.32 0 2.64 0 4 0 C4.33 1.98 4.66 3.96 5 6 C3.35 6 1.7 6 0 6 C-1 3 -1 3 0 0 Z " fill="#F2C0A7" transform="translate(280,414)"/>
<path d="M0 0 C2.33524782 2.25740623 4.18705073 4.2805761 6 7 C6 8.32 6 9.64 6 11 C5.34 11 4.68 11 4 11 C2.95107762 9.36368108 1.95093297 7.69514137 1 6 C0.67 5.67 0.34 5.34 0 5 C-0.04063832 3.33382885 -0.042721 1.66611905 0 0 Z " fill="#ECAE7F" transform="translate(444,215)"/>
<path d="M0 0 C4.20763224 1.5027258 5.8027758 4.23332995 8 8 C8 8.66 8 9.32 8 10 C7.34 10 6.68 10 6 10 C6 9.34 6 8.68 6 8 C5.34 8 4.68 8 4 8 C4 7.34 4 6.68 4 6 C3.34 5.67 2.68 5.34 2 5 C1.34 4.34 0.68 3.68 0 3 C0 2.01 0 1.02 0 0 Z " fill="#F0B89B" transform="translate(313,490)"/>
<path d="M0 0 C3.39417765 3.12621626 5.6062718 5.56541027 7 10 C3.17398693 8.54875366 1.77670876 6.64225296 0 3 C0 2.01 0 1.02 0 0 Z " fill="#ECAF83" transform="translate(435,202)"/>
<path d="M0 0 C3.34249629 0.59687434 5.46436342 1.73603877 8 4 C8 4.66 8 5.32 8 6 C7.01 6.33 6.02 6.66 5 7 C2.46447088 5.73223544 2.15080425 4.53176935 1 2 C0.67 1.34 0.34 0.68 0 0 Z " fill="#EBA76D" transform="translate(739,621)"/>
<path d="M0 0 C3.33557632 2.9905167 5.15083921 5.93184627 7 10 C5.1875 9.8125 5.1875 9.8125 3 9 C0.46629412 5.65188866 0 4.29875783 0 0 Z " fill="#EEB493" transform="translate(427,190)"/>
<path d="M0 0 C3.60296594 -0.41176754 4.78402067 -0.1535853 7.8125 2 C8.534375 2.66 9.25625 3.32 10 4 C9.67 4.66 9.34 5.32 9 6 C6.69 5.01 4.38 4.02 2 3 C2 2.34 2 1.68 2 1 C1.34 0.67 0.68 0.34 0 0 Z " fill="#EF9C55" transform="translate(728,615)"/>
<path d="M0 0 C0.99 0 1.98 0 3 0 C6.125 5.5 6.125 5.5 5 10 C3.35 6.7 1.7 3.4 0 0 Z " fill="#F2B193" transform="translate(298,465)"/>
<path d="M0 0 C1.19109375 0.13535156 1.19109375 0.13535156 2.40625 0.2734375 C4.5 0.625 4.5 0.625 6.5 1.625 C6.5 2.285 6.5 2.945 6.5 3.625 C5.96375 3.480625 5.4275 3.33625 4.875 3.1875 C3.07793639 2.76187967 1.26014628 2.4225749 -0.5625 2.125 C-3.5 1.625 -3.5 1.625 -6.5 0.625 C-4.01458657 -0.61770671 -2.73584621 -0.32865685 0 0 Z " fill="#F4A954" transform="translate(485.5,606.375)"/>
<path d="M0 0 C2.3431213 0.25561323 4.67843403 0.59270772 7 1 C7.33 1.66 7.66 2.32 8 3 C6.25 3.75 6.25 3.75 4 4 C1.75 2.0625 1.75 2.0625 0 0 Z " fill="#F2AD60" transform="translate(434,591)"/>
<path d="M0 0 C6.0546875 -0.1953125 6.0546875 -0.1953125 8 0 C8.66 0.66 9.32 1.32 10 2 C6.18510326 3.46726798 3.70988378 2.43336419 0 1 C0 0.67 0 0.34 0 0 Z " fill="#F09458" transform="translate(504,610)"/>
<path d="M0 0 C2.475 0.495 2.475 0.495 5 1 C5.12375 1.639375 5.2475 2.27875 5.375 2.9375 C5.684375 3.9584375 5.684375 3.9584375 6 5 C6.66 5.33 7.32 5.66 8 6 C7.01 6 6.02 6 5 6 C5 5.34 5 4.68 5 4 C4.34 4 3.68 4 3 4 C1.375 2 1.375 2 0 0 Z " fill="#F2B97A" transform="translate(361,546)"/>
<path d="M0 0 C2.25245881 2.68841859 3.88213958 4.64641875 5 8 C2.00675737 6.9024777 1.15389099 6.32317108 -0.25 3.375 C-0.4975 2.59125 -0.745 1.8075 -1 1 C-0.67 0.67 -0.34 0.34 0 0 Z " fill="#EEB390" transform="translate(420,179)"/>
<path d="M0 0 C3.3 0 6.6 0 10 0 C10 0.33 10 0.66 10 1 C6.7 1 3.4 1 0 1 C0 0.67 0 0.34 0 0 Z " fill="#FFFF50" transform="translate(520,613)"/>
<path d="M0 0 C3 1 3 1 3 1 Z " fill="#FFD644" transform="translate(495,610)"/>
<path d="" fill="#FF0000" transform="translate(0,0)"/>
<path d="M0 0 C2 1 2 1 2 1 Z " fill="#FFFF00" transform="translate(467,604)"/>
<path d="" fill="#FFFFFF" transform="translate(0,0)"/>
<path d="" fill="#FF0000" transform="translate(0,0)"/>
<path d="" fill="#FF0000" transform="translate(0,0)"/>
<path d="" fill="#FFFF00" transform="translate(0,0)"/>
<path d="" fill="#FF8080" transform="translate(0,0)"/>
<path d="" fill="#FFFF00" transform="translate(0,0)"/>
<path d="" fill="#FFFF00" transform="translate(0,0)"/>
<path d="" fill="#FFFF00" transform="translate(0,0)"/>
<path d="" fill="#FFFF00" transform="translate(0,0)"/>
<path d="" fill="#FFFFFF" transform="translate(0,0)"/>
<path d="" fill="#FFFF00" transform="translate(0,0)"/>
<path d="" fill="#FFFFFF" transform="translate(0,0)"/>
<path d="" fill="#FFFFFF" transform="translate(0,0)"/>
<path d="" fill="#FFFFFF" transform="translate(0,0)"/>
<path d="" fill="#FFFF00" transform="translate(0,0)"/>
<path d="" fill="#FFFF00" transform="translate(0,0)"/>
<path d="" fill="#FFFFFF" transform="translate(0,0)"/>
<path d="" fill="#FFFF00" transform="translate(0,0)"/>
</svg>
